<svg width="80" height="81" viewBox="0 0 80 81" fill="none" xmlns="http://www.w3.org/2000/svg">
<circle cx="40" cy="40.0328" r="40" fill="white" fill-opacity="0.1"/>
<circle cx="40" cy="40.0328" r="40" stroke="black"/>
<path d="M54 55.0328H27C26.4696 55.0328 25.9609 54.8221 25.5858 54.4471C25.2107 54.072 25 53.5633 25 53.0328V26.0328C25 25.7676 25.1054 25.5133 25.2929 25.3257C25.4804 25.1382 25.7348 25.0328 26 25.0328C26.2652 25.0328 26.5196 25.1382 26.7071 25.3257C26.8946 25.5133 27 25.7676 27 26.0328V53.0328H54C54.2652 53.0328 54.5196 53.1382 54.7071 53.3257C54.8946 53.5133 55 53.7676 55 54.0328C55 54.2981 54.8946 54.5524 54.7071 54.7399C54.5196 54.9275 54.2652 55.0328 54 55.0328Z" fill="#3671E9"/>
<path d="M33.75 51.0328H31.25C30.6533 51.0328 30.081 50.7958 29.659 50.3738C29.2371 49.9519 29 49.3796 29 48.7828V39.2828C29 38.6861 29.2371 38.1138 29.659 37.6918C30.081 37.2699 30.6533 37.0328 31.25 37.0328H33.75C34.3467 37.0328 34.919 37.2699 35.341 37.6918C35.7629 38.1138 36 38.6861 36 39.2828V48.7828C36 49.3796 35.7629 49.9519 35.341 50.3738C34.919 50.7958 34.3467 51.0328 33.75 51.0328Z" fill="#3671E9"/>
<path d="M42.75 51.0328H40.25C39.6533 51.0328 39.081 50.7958 38.659 50.3738C38.2371 49.9519 38 49.3796 38 48.7828V36.2828C38 35.6861 38.2371 35.1138 38.659 34.6918C39.081 34.2699 39.6533 34.0328 40.25 34.0328H42.75C43.3467 34.0328 43.919 34.2699 44.341 34.6918C44.7629 35.1138 45 35.6861 45 36.2828V48.7828C45 49.3796 44.7629 49.9519 44.341 50.3738C43.919 50.7958 43.3467 51.0328 42.75 51.0328Z" fill="#3671E9"/>
<path d="M51.7274 51.0328H49.2274C48.6307 51.0328 48.0584 50.7958 47.6364 50.3738C47.2145 49.9519 46.9774 49.3796 46.9774 48.7828V32.2828C46.9774 31.6861 47.2145 31.1138 47.6364 30.6918C48.0584 30.2699 48.6307 30.0328 49.2274 30.0328H51.7274C52.3242 30.0328 52.8965 30.2699 53.3184 30.6918C53.7404 31.1138 53.9774 31.6861 53.9774 32.2828V48.7828C53.9774 49.3796 53.7404 49.9519 53.3184 50.3738C52.8965 50.7958 52.3242 51.0328 51.7274 51.0328Z" fill="#3671E9"/>
<rect x="24" y="24.0328" width="32" height="32" rx="16" stroke="black"/>
</svg>
