<svg width="80" height="81" viewBox="0 0 80 81" fill="none" xmlns="http://www.w3.org/2000/svg">
<circle opacity="0.1" cx="40" cy="40.0328" r="40" fill="white"/>
<path d="M45.9875 25.0781C44.4672 23.4367 42.3437 22.5328 40 22.5328C37.6437 22.5328 35.5132 23.4313 34 25.0625C32.4703 26.7117 31.725 28.9531 31.9 31.3735C32.2468 36.1485 35.8804 40.0328 40 40.0328C44.1195 40.0328 47.7468 36.1492 48.0992 31.375C48.2765 28.9766 47.5265 26.7399 45.9875 25.0781Z" fill="#3671E9"/>
<path d="M53.7498 57.5328H26.2498C25.8899 57.5375 25.5334 57.4619 25.2064 57.3115C24.8793 57.1611 24.5899 56.9396 24.3592 56.6633C23.8514 56.0563 23.6467 55.2274 23.7983 54.3891C24.4576 50.7313 26.5155 47.6586 29.7498 45.5016C32.6233 43.5867 36.2631 42.5328 39.9998 42.5328C43.7366 42.5328 47.3764 43.5875 50.2498 45.5016C53.4842 47.6578 55.542 50.7305 56.2014 54.3883C56.353 55.2266 56.1483 56.0555 55.6405 56.6625C55.4098 56.939 55.1205 57.1606 54.7934 57.3111C54.4664 57.4617 54.1098 57.5374 53.7498 57.5328Z" fill="#3671E9"/>
</svg>
