<svg width="425" height="112" viewBox="0 0 425 112" fill="none" xmlns="http://www.w3.org/2000/svg">
<rect y="35" width="425" height="28" rx="14" fill="#43E8E1"/>
<rect y="35" width="425" height="28" rx="14" fill="#43E8E1"/>
<rect y="35" width="425" height="28" rx="14" fill="#43E8E1"/>
<rect x="126" y="35" width="299" height="28" rx="14" fill="#43E8E1"/>
<rect x="126" y="35" width="299" height="28" rx="14" fill="#43E8E1"/>
<rect x="126" y="35" width="299" height="28" rx="14" fill="#BDBDBD"/>
<rect x="54" y="29" width="2" height="61" fill="#F2F2F2"/>
<path d="M20.06 13.4C19.9667 13.4 19.8873 13.3673 19.822 13.302C19.7567 13.246 19.724 13.1667 19.724 13.064V12.084C19.052 12.0187 18.4733 11.86 17.988 11.608C17.512 11.3467 17.148 11.0293 16.896 10.656C16.6533 10.2733 16.5227 9.86733 16.504 9.438C16.504 9.354 16.532 9.284 16.588 9.228C16.6533 9.172 16.728 9.144 16.812 9.144H18.058C18.1607 9.144 18.24 9.16733 18.296 9.214C18.3613 9.25133 18.422 9.31667 18.478 9.41C18.5807 9.72733 18.7953 9.99333 19.122 10.208C19.458 10.4227 19.92 10.53 20.508 10.53C21.1613 10.53 21.656 10.4227 21.992 10.208C22.328 9.984 22.496 9.676 22.496 9.284C22.496 9.02267 22.412 8.808 22.244 8.64C22.076 8.472 21.8193 8.32733 21.474 8.206C21.1287 8.07533 20.62 7.926 19.948 7.758C18.8467 7.49667 18.0393 7.15133 17.526 6.722C17.022 6.28333 16.77 5.66267 16.77 4.86C16.77 4.132 17.0313 3.52067 17.554 3.026C18.086 2.522 18.8093 2.214 19.724 2.102V1.136C19.724 1.03333 19.7567 0.953999 19.822 0.897999C19.8873 0.832666 19.9667 0.8 20.06 0.8H20.914C21.0073 0.8 21.0867 0.832666 21.152 0.897999C21.2173 0.963333 21.25 1.04267 21.25 1.136V2.13C21.8567 2.214 22.3747 2.396 22.804 2.676C23.2427 2.94667 23.574 3.264 23.798 3.628C24.0313 3.992 24.1573 4.34667 24.176 4.692C24.176 4.776 24.148 4.846 24.092 4.902C24.036 4.958 23.966 4.986 23.882 4.986H22.58C22.3747 4.986 22.2347 4.89733 22.16 4.72C22.1133 4.42133 21.9313 4.174 21.614 3.978C21.2967 3.77267 20.9 3.67 20.424 3.67C19.9107 3.67 19.5047 3.768 19.206 3.964C18.9073 4.16 18.758 4.44467 18.758 4.818C18.758 5.07933 18.8327 5.294 18.982 5.462C19.1313 5.63 19.3647 5.77933 19.682 5.91C20.0087 6.04067 20.4753 6.18533 21.082 6.344C21.9033 6.53067 22.5567 6.74067 23.042 6.974C23.5367 7.20733 23.9007 7.50133 24.134 7.856C24.3673 8.21067 24.484 8.66333 24.484 9.214C24.484 10.0167 24.1947 10.6747 23.616 11.188C23.0373 11.692 22.2487 11.9953 21.25 12.098V13.064C21.25 13.1573 21.2173 13.2367 21.152 13.302C21.0867 13.3673 21.0073 13.4 20.914 13.4H20.06ZM29.3501 12.14C28.5288 12.14 27.8288 12.0093 27.2501 11.748C26.6808 11.4867 26.2514 11.16 25.9621 10.768C25.6821 10.3667 25.5328 9.956 25.5141 9.536C25.5141 9.452 25.5421 9.38667 25.5981 9.34C25.6634 9.284 25.7381 9.256 25.8221 9.256H27.0821C27.2874 9.256 27.4228 9.34933 27.4881 9.536C27.6934 10.208 28.3188 10.544 29.3641 10.544C29.9334 10.544 30.3814 10.4133 30.7081 10.152C31.0348 9.88133 31.1981 9.49867 31.1981 9.004C31.1981 8.07067 30.6148 7.604 29.4481 7.604H28.0061C27.9034 7.604 27.8194 7.57133 27.7541 7.506C27.6888 7.44067 27.6561 7.36133 27.6561 7.268V6.68C27.6561 6.53067 27.7214 6.39067 27.8521 6.26L30.3581 3.81H26.3541C26.2608 3.81 26.1814 3.77733 26.1161 3.712C26.0508 3.64667 26.0181 3.56733 26.0181 3.474V2.55C26.0181 2.44733 26.0461 2.36333 26.1021 2.298C26.1674 2.23267 26.2514 2.2 26.3541 2.2H32.3601C32.4628 2.2 32.5468 2.23267 32.6121 2.298C32.6774 2.36333 32.7101 2.44733 32.7101 2.55V3.39C32.7101 3.53 32.6494 3.66067 32.5281 3.782L30.1061 6.274L30.2741 6.288C31.1701 6.36267 31.8794 6.63333 32.4021 7.1C32.9341 7.56667 33.2001 8.234 33.2001 9.102C33.2001 9.718 33.0321 10.2547 32.6961 10.712C32.3694 11.1693 31.9121 11.524 31.3241 11.776C30.7454 12.0187 30.0874 12.14 29.3501 12.14ZM38.4065 12.14C37.1651 12.14 36.2365 11.7947 35.6205 11.104C35.0138 10.4133 34.6825 9.508 34.6265 8.388C34.6171 8.136 34.6125 7.70667 34.6125 7.1C34.6125 6.484 34.6171 6.04533 34.6265 5.784C34.6731 4.68267 35.0091 3.78667 35.6345 3.096C36.2598 2.40533 37.1838 2.06 38.4065 2.06C39.6385 2.06 40.5671 2.40533 41.1925 3.096C41.8178 3.78667 42.1491 4.68267 42.1865 5.784C42.2051 6.04533 42.2145 6.484 42.2145 7.1C42.2145 7.70667 42.2051 8.136 42.1865 8.388C42.1398 9.508 41.8085 10.4133 41.1925 11.104C40.5858 11.7947 39.6571 12.14 38.4065 12.14ZM38.4065 10.53C38.9945 10.53 39.4331 10.3387 39.7225 9.956C40.0118 9.564 40.1658 9.018 40.1845 8.318C40.2031 7.77667 40.2125 7.366 40.2125 7.086C40.2125 6.778 40.2031 6.372 40.1845 5.868C40.1658 5.17733 40.0118 4.636 39.7225 4.244C39.4331 3.852 38.9945 3.656 38.4065 3.656C37.8278 3.656 37.3891 3.852 37.0905 4.244C36.8011 4.636 36.6471 5.17733 36.6285 5.868C36.6191 6.12 36.6145 6.526 36.6145 7.086C36.6145 7.63667 36.6191 8.04733 36.6285 8.318C36.6471 9.018 36.8011 9.564 37.0905 9.956C37.3891 10.3387 37.8278 10.53 38.4065 10.53ZM47.6076 12.14C46.3663 12.14 45.4376 11.7947 44.8216 11.104C44.215 10.4133 43.8836 9.508 43.8276 8.388C43.8183 8.136 43.8136 7.70667 43.8136 7.1C43.8136 6.484 43.8183 6.04533 43.8276 5.784C43.8743 4.68267 44.2103 3.78667 44.8356 3.096C45.461 2.40533 46.385 2.06 47.6076 2.06C48.8396 2.06 49.7683 2.40533 50.3936 3.096C51.019 3.78667 51.3503 4.68267 51.3876 5.784C51.4063 6.04533 51.4156 6.484 51.4156 7.1C51.4156 7.70667 51.4063 8.136 51.3876 8.388C51.341 9.508 51.0096 10.4133 50.3936 11.104C49.787 11.7947 48.8583 12.14 47.6076 12.14ZM47.6076 10.53C48.1956 10.53 48.6343 10.3387 48.9236 9.956C49.213 9.564 49.367 9.018 49.3856 8.318C49.4043 7.77667 49.4136 7.366 49.4136 7.086C49.4136 6.778 49.4043 6.372 49.3856 5.868C49.367 5.17733 49.213 4.636 48.9236 4.244C48.6343 3.852 48.1956 3.656 47.6076 3.656C47.029 3.656 46.5903 3.852 46.2916 4.244C46.0023 4.636 45.8483 5.17733 45.8296 5.868C45.8203 6.12 45.8156 6.526 45.8156 7.086C45.8156 7.63667 45.8203 8.04733 45.8296 8.318C45.8483 9.018 46.0023 9.564 46.2916 9.956C46.5903 10.3387 47.029 10.53 47.6076 10.53ZM52.9064 13.05C52.8224 13.05 52.7571 13.022 52.7104 12.966C52.6637 12.91 52.6451 12.84 52.6544 12.756L53.0324 10.376C53.0511 10.2453 53.0977 10.138 53.1724 10.054C53.2471 9.97 53.3497 9.928 53.4804 9.928H54.7684C54.8337 9.928 54.8897 9.956 54.9364 10.012C54.9924 10.0587 55.0204 10.1193 55.0204 10.194C55.0204 10.2407 55.0064 10.3013 54.9784 10.376L54.0824 12.7C54.0357 12.812 53.9751 12.896 53.9004 12.952C53.8351 13.0173 53.7417 13.05 53.6204 13.05H52.9064ZM60.1994 12.14C58.9581 12.14 58.0294 11.7947 57.4134 11.104C56.8068 10.4133 56.4754 9.508 56.4194 8.388C56.4101 8.136 56.4054 7.70667 56.4054 7.1C56.4054 6.484 56.4101 6.04533 56.4194 5.784C56.4661 4.68267 56.8021 3.78667 57.4274 3.096C58.0528 2.40533 58.9768 2.06 60.1994 2.06C61.4314 2.06 62.3601 2.40533 62.9854 3.096C63.6108 3.78667 63.9421 4.68267 63.9794 5.784C63.9981 6.04533 64.0074 6.484 64.0074 7.1C64.0074 7.70667 63.9981 8.136 63.9794 8.388C63.9328 9.508 63.6014 10.4133 62.9854 11.104C62.3788 11.7947 61.4501 12.14 60.1994 12.14ZM60.1994 10.53C60.7874 10.53 61.2261 10.3387 61.5154 9.956C61.8048 9.564 61.9588 9.018 61.9774 8.318C61.9961 7.77667 62.0054 7.366 62.0054 7.086C62.0054 6.778 61.9961 6.372 61.9774 5.868C61.9588 5.17733 61.8048 4.636 61.5154 4.244C61.2261 3.852 60.7874 3.656 60.1994 3.656C59.6208 3.656 59.1821 3.852 58.8834 4.244C58.5941 4.636 58.4401 5.17733 58.4214 5.868C58.4121 6.12 58.4074 6.526 58.4074 7.086C58.4074 7.63667 58.4121 8.04733 58.4214 8.318C58.4401 9.018 58.5941 9.564 58.8834 9.956C59.1821 10.3387 59.6208 10.53 60.1994 10.53ZM69.4006 12.14C68.1593 12.14 67.2306 11.7947 66.6146 11.104C66.0079 10.4133 65.6766 9.508 65.6206 8.388C65.6113 8.136 65.6066 7.70667 65.6066 7.1C65.6066 6.484 65.6113 6.04533 65.6206 5.784C65.6673 4.68267 66.0033 3.78667 66.6286 3.096C67.2539 2.40533 68.1779 2.06 69.4006 2.06C70.6326 2.06 71.5613 2.40533 72.1866 3.096C72.8119 3.78667 73.1433 4.68267 73.1806 5.784C73.1993 6.04533 73.2086 6.484 73.2086 7.1C73.2086 7.70667 73.1993 8.136 73.1806 8.388C73.1339 9.508 72.8026 10.4133 72.1866 11.104C71.5799 11.7947 70.6513 12.14 69.4006 12.14ZM69.4006 10.53C69.9886 10.53 70.4273 10.3387 70.7166 9.956C71.0059 9.564 71.1599 9.018 71.1786 8.318C71.1973 7.77667 71.2066 7.366 71.2066 7.086C71.2066 6.778 71.1973 6.372 71.1786 5.868C71.1599 5.17733 71.0059 4.636 70.7166 4.244C70.4273 3.852 69.9886 3.656 69.4006 3.656C68.8219 3.656 68.3833 3.852 68.0846 4.244C67.7953 4.636 67.6413 5.17733 67.6226 5.868C67.6133 6.12 67.6086 6.526 67.6086 7.086C67.6086 7.63667 67.6133 8.04733 67.6226 8.318C67.6413 9.018 67.7953 9.564 68.0846 9.956C68.3833 10.3387 68.8219 10.53 69.4006 10.53ZM78.6018 12.14C77.3604 12.14 76.4318 11.7947 75.8158 11.104C75.2091 10.4133 74.8778 9.508 74.8218 8.388C74.8124 8.136 74.8078 7.70667 74.8078 7.1C74.8078 6.484 74.8124 6.04533 74.8218 5.784C74.8684 4.68267 75.2044 3.78667 75.8298 3.096C76.4551 2.40533 77.3791 2.06 78.6018 2.06C79.8338 2.06 80.7624 2.40533 81.3878 3.096C82.0131 3.78667 82.3444 4.68267 82.3818 5.784C82.4004 6.04533 82.4098 6.484 82.4098 7.1C82.4098 7.70667 82.4004 8.136 82.3818 8.388C82.3351 9.508 82.0038 10.4133 81.3878 11.104C80.7811 11.7947 79.8524 12.14 78.6018 12.14ZM78.6018 10.53C79.1898 10.53 79.6284 10.3387 79.9178 9.956C80.2071 9.564 80.3611 9.018 80.3798 8.318C80.3984 7.77667 80.4078 7.366 80.4078 7.086C80.4078 6.778 80.3984 6.372 80.3798 5.868C80.3611 5.17733 80.2071 4.636 79.9178 4.244C79.6284 3.852 79.1898 3.656 78.6018 3.656C78.0231 3.656 77.5844 3.852 77.2858 4.244C76.9964 4.636 76.8424 5.17733 76.8238 5.868C76.8144 6.12 76.8098 6.526 76.8098 7.086C76.8098 7.63667 76.8144 8.04733 76.8238 8.318C76.8424 9.018 76.9964 9.564 77.2858 9.956C77.5844 10.3387 78.0231 10.53 78.6018 10.53Z" fill="white"/>
<path d="M382.06 13.4C381.967 13.4 381.887 13.3673 381.822 13.302C381.757 13.246 381.724 13.1667 381.724 13.064V12.084C381.052 12.0187 380.473 11.86 379.988 11.608C379.512 11.3467 379.148 11.0293 378.896 10.656C378.653 10.2733 378.523 9.86733 378.504 9.438C378.504 9.354 378.532 9.284 378.588 9.228C378.653 9.172 378.728 9.144 378.812 9.144H380.058C380.161 9.144 380.24 9.16733 380.296 9.214C380.361 9.25133 380.422 9.31667 380.478 9.41C380.581 9.72733 380.795 9.99333 381.122 10.208C381.458 10.4227 381.92 10.53 382.508 10.53C383.161 10.53 383.656 10.4227 383.992 10.208C384.328 9.984 384.496 9.676 384.496 9.284C384.496 9.02267 384.412 8.808 384.244 8.64C384.076 8.472 383.819 8.32733 383.474 8.206C383.129 8.07533 382.62 7.926 381.948 7.758C380.847 7.49667 380.039 7.15133 379.526 6.722C379.022 6.28333 378.77 5.66267 378.77 4.86C378.77 4.132 379.031 3.52067 379.554 3.026C380.086 2.522 380.809 2.214 381.724 2.102V1.136C381.724 1.03333 381.757 0.953999 381.822 0.897999C381.887 0.832666 381.967 0.8 382.06 0.8H382.914C383.007 0.8 383.087 0.832666 383.152 0.897999C383.217 0.963333 383.25 1.04267 383.25 1.136V2.13C383.857 2.214 384.375 2.396 384.804 2.676C385.243 2.94667 385.574 3.264 385.798 3.628C386.031 3.992 386.157 4.34667 386.176 4.692C386.176 4.776 386.148 4.846 386.092 4.902C386.036 4.958 385.966 4.986 385.882 4.986H384.58C384.375 4.986 384.235 4.89733 384.16 4.72C384.113 4.42133 383.931 4.174 383.614 3.978C383.297 3.77267 382.9 3.67 382.424 3.67C381.911 3.67 381.505 3.768 381.206 3.964C380.907 4.16 380.758 4.44467 380.758 4.818C380.758 5.07933 380.833 5.294 380.982 5.462C381.131 5.63 381.365 5.77933 381.682 5.91C382.009 6.04067 382.475 6.18533 383.082 6.344C383.903 6.53067 384.557 6.74067 385.042 6.974C385.537 7.20733 385.901 7.50133 386.134 7.856C386.367 8.21067 386.484 8.66333 386.484 9.214C386.484 10.0167 386.195 10.6747 385.616 11.188C385.037 11.692 384.249 11.9953 383.25 12.098V13.064C383.25 13.1573 383.217 13.2367 383.152 13.302C383.087 13.3673 383.007 13.4 382.914 13.4H382.06ZM390.874 12C390.781 12 390.701 11.9673 390.636 11.902C390.571 11.8367 390.538 11.7573 390.538 11.664V4.412L388.41 6.05C388.354 6.09667 388.289 6.12 388.214 6.12C388.102 6.12 388.009 6.06867 387.934 5.966L387.346 5.21C387.299 5.13533 387.276 5.06533 387.276 5C387.276 4.888 387.327 4.79467 387.43 4.72L390.566 2.298C390.65 2.23267 390.767 2.2 390.916 2.2H392.148C392.251 2.2 392.33 2.23267 392.386 2.298C392.451 2.354 392.484 2.43333 392.484 2.536V11.664C392.484 11.7573 392.451 11.8367 392.386 11.902C392.33 11.9673 392.251 12 392.148 12H390.874ZM394.653 12C394.559 12 394.48 11.9673 394.415 11.902C394.349 11.8367 394.317 11.7573 394.317 11.664V10.278C394.317 10.1847 394.349 10.1053 394.415 10.04C394.48 9.96533 394.559 9.928 394.653 9.928H396.053C396.146 9.928 396.225 9.96533 396.291 10.04C396.356 10.1053 396.389 10.1847 396.389 10.278V11.664C396.389 11.7573 396.356 11.8367 396.291 11.902C396.225 11.9673 396.146 12 396.053 12H394.653ZM400.171 12C400.078 12 399.998 11.9673 399.933 11.902C399.868 11.8367 399.835 11.7573 399.835 11.664V4.412L397.707 6.05C397.651 6.09667 397.586 6.12 397.511 6.12C397.399 6.12 397.306 6.06867 397.231 5.966L396.643 5.21C396.596 5.13533 396.573 5.06533 396.573 5C396.573 4.888 396.624 4.79467 396.727 4.72L399.863 2.298C399.947 2.23267 400.064 2.2 400.213 2.2H401.445C401.548 2.2 401.627 2.23267 401.683 2.298C401.748 2.354 401.781 2.43333 401.781 2.536V11.664C401.781 11.7573 401.748 11.8367 401.683 11.902C401.627 11.9673 401.548 12 401.445 12H400.171ZM404.215 12C404.113 12 404.029 11.972 403.963 11.916C403.898 11.8507 403.865 11.7667 403.865 11.664V2.55C403.865 2.44733 403.898 2.36333 403.963 2.298C404.029 2.23267 404.113 2.2 404.215 2.2H405.321C405.517 2.2 405.657 2.28867 405.741 2.466L408.443 7.506L411.173 2.466C411.267 2.28867 411.407 2.2 411.593 2.2H412.685C412.788 2.2 412.872 2.23267 412.937 2.298C413.003 2.36333 413.035 2.44733 413.035 2.55V11.664C413.035 11.7667 413.003 11.8507 412.937 11.916C412.872 11.972 412.788 12 412.685 12H411.509C411.416 12 411.337 11.9673 411.271 11.902C411.206 11.8367 411.173 11.7573 411.173 11.664V5.602L409.213 9.34C409.092 9.54533 408.933 9.648 408.737 9.648H408.163C407.967 9.648 407.809 9.54533 407.687 9.34L405.727 5.602V11.664C405.727 11.7573 405.695 11.8367 405.629 11.902C405.573 11.9673 405.494 12 405.391 12H404.215Z" fill="white"/>
<path d="M20.494 109.14C19.6633 109.14 18.9493 109.014 18.352 108.762C17.7547 108.51 17.302 108.179 16.994 107.768C16.686 107.357 16.5227 106.914 16.504 106.438C16.504 106.354 16.532 106.284 16.588 106.228C16.644 106.172 16.714 106.144 16.798 106.144H18.044C18.156 106.144 18.24 106.167 18.296 106.214C18.3613 106.251 18.422 106.317 18.478 106.41C18.5713 106.727 18.786 106.993 19.122 107.208C19.458 107.423 19.9153 107.53 20.494 107.53C21.1567 107.53 21.656 107.423 21.992 107.208C22.328 106.984 22.496 106.676 22.496 106.284C22.496 106.023 22.4073 105.808 22.23 105.64C22.062 105.472 21.8053 105.327 21.46 105.206C21.124 105.085 20.62 104.935 19.948 104.758C18.8467 104.497 18.0393 104.151 17.526 103.722C17.022 103.283 16.77 102.663 16.77 101.86C16.77 101.319 16.9147 100.838 17.204 100.418C17.5027 99.998 17.9273 99.6667 18.478 99.424C19.038 99.1813 19.6867 99.06 20.424 99.06C21.1893 99.06 21.852 99.1953 22.412 99.466C22.972 99.7367 23.3967 100.077 23.686 100.488C23.9847 100.889 24.1433 101.291 24.162 101.692C24.162 101.776 24.134 101.846 24.078 101.902C24.022 101.958 23.952 101.986 23.868 101.986H22.566C22.37 101.986 22.2347 101.897 22.16 101.72C22.104 101.421 21.9173 101.174 21.6 100.978C21.2827 100.773 20.8907 100.67 20.424 100.67C19.9013 100.67 19.4907 100.768 19.192 100.964C18.8933 101.16 18.744 101.445 18.744 101.818C18.744 102.079 18.8187 102.294 18.968 102.462C19.1173 102.63 19.3507 102.779 19.668 102.91C19.9947 103.041 20.4613 103.185 21.068 103.344C21.8893 103.531 22.5427 103.741 23.028 103.974C23.5227 104.207 23.8867 104.501 24.12 104.856C24.3533 105.211 24.47 105.663 24.47 106.214C24.47 106.811 24.302 107.334 23.966 107.782C23.6393 108.221 23.1727 108.557 22.566 108.79C21.9687 109.023 21.278 109.14 20.494 109.14ZM29.1264 109.14C28.0344 109.14 27.1898 108.86 26.5924 108.3C25.9951 107.731 25.6731 106.956 25.6264 105.976L25.6124 105.36L25.6264 104.744C25.6731 103.773 25.9998 103.003 26.6064 102.434C27.2131 101.865 28.0531 101.58 29.1264 101.58C30.1998 101.58 31.0398 101.865 31.6464 102.434C32.2531 103.003 32.5798 103.773 32.6264 104.744C32.6358 104.856 32.6404 105.061 32.6404 105.36C32.6404 105.659 32.6358 105.864 32.6264 105.976C32.5798 106.956 32.2578 107.731 31.6604 108.3C31.0631 108.86 30.2184 109.14 29.1264 109.14ZM29.1264 107.754C29.6211 107.754 30.0038 107.6 30.2744 107.292C30.5451 106.975 30.6944 106.513 30.7224 105.906C30.7318 105.813 30.7364 105.631 30.7364 105.36C30.7364 105.089 30.7318 104.907 30.7224 104.814C30.6944 104.207 30.5451 103.75 30.2744 103.442C30.0038 103.125 29.6211 102.966 29.1264 102.966C28.6318 102.966 28.2491 103.125 27.9784 103.442C27.7078 103.75 27.5584 104.207 27.5304 104.814L27.5164 105.36L27.5304 105.906C27.5584 106.513 27.7078 106.975 27.9784 107.292C28.2491 107.6 28.6318 107.754 29.1264 107.754ZM35.2295 109C35.1362 109 35.0569 108.967 34.9915 108.902C34.9262 108.837 34.8935 108.757 34.8935 108.664V103.204H33.7595C33.6662 103.204 33.5869 103.171 33.5215 103.106C33.4562 103.031 33.4235 102.947 33.4235 102.854V102.056C33.4235 101.963 33.4562 101.883 33.5215 101.818C33.5869 101.753 33.6662 101.72 33.7595 101.72H34.8935V101.146C34.8935 99.4753 35.8082 98.64 37.6375 98.64H38.5895C38.6922 98.64 38.7715 98.6727 38.8275 98.738C38.8929 98.794 38.9255 98.8733 38.9255 98.976V99.774C38.9255 99.8767 38.8929 99.9607 38.8275 100.026C38.7622 100.091 38.6829 100.124 38.5895 100.124H37.6935C37.3295 100.124 37.0729 100.213 36.9235 100.39C36.7835 100.567 36.7135 100.843 36.7135 101.216V101.72H38.4495C38.5522 101.72 38.6315 101.753 38.6875 101.818C38.7529 101.874 38.7855 101.953 38.7855 102.056V102.854C38.7855 102.957 38.7529 103.041 38.6875 103.106C38.6222 103.171 38.5429 103.204 38.4495 103.204H36.7135V108.664C36.7135 108.757 36.6809 108.837 36.6155 108.902C36.5502 108.967 36.4709 109 36.3775 109H35.2295ZM43.1964 109C42.3471 109 41.7078 108.781 41.2784 108.342C40.8584 107.894 40.6484 107.241 40.6484 106.382V103.204H39.5424C39.4491 103.204 39.3698 103.171 39.3044 103.106C39.2391 103.031 39.2064 102.947 39.2064 102.854V102.056C39.2064 101.963 39.2391 101.883 39.3044 101.818C39.3698 101.753 39.4491 101.72 39.5424 101.72H40.6484V99.396C40.6484 99.2933 40.6811 99.214 40.7464 99.158C40.8118 99.0927 40.8911 99.06 40.9844 99.06H42.1184C42.2211 99.06 42.3004 99.0927 42.3564 99.158C42.4218 99.214 42.4544 99.2933 42.4544 99.396V101.72H44.2044C44.3071 101.72 44.3864 101.753 44.4424 101.818C44.5078 101.874 44.5404 101.953 44.5404 102.056V102.854C44.5404 102.957 44.5078 103.041 44.4424 103.106C44.3771 103.171 44.2978 103.204 44.2044 103.204H42.4544V106.242C42.4544 106.643 42.5244 106.947 42.6644 107.152C42.8044 107.357 43.0378 107.46 43.3644 107.46H44.3304C44.4238 107.46 44.5031 107.493 44.5684 107.558C44.6338 107.623 44.6664 107.703 44.6664 107.796V108.664C44.6664 108.757 44.6338 108.837 44.5684 108.902C44.5124 108.967 44.4331 109 44.3304 109H43.1964ZM49.0584 109.14C48.0317 109.14 47.2104 108.855 46.5944 108.286C45.9877 107.717 45.6657 106.928 45.6284 105.92L45.6144 105.36L45.6284 104.8C45.6657 103.792 45.9877 103.003 46.5944 102.434C47.2104 101.865 48.0317 101.58 49.0584 101.58C49.7864 101.58 50.4024 101.711 50.9064 101.972C51.4197 102.233 51.7977 102.555 52.0404 102.938C52.2924 103.311 52.4277 103.666 52.4464 104.002C52.4557 104.095 52.423 104.175 52.3484 104.24C52.283 104.305 52.2037 104.338 52.1104 104.338H50.8784C50.785 104.338 50.7104 104.319 50.6544 104.282C50.6077 104.235 50.561 104.161 50.5144 104.058C50.3744 103.694 50.1877 103.433 49.9544 103.274C49.7304 103.115 49.441 103.036 49.0864 103.036C48.6104 103.036 48.237 103.19 47.9664 103.498C47.6957 103.797 47.551 104.254 47.5324 104.87L47.5184 105.388L47.5324 105.85C47.5697 107.073 48.0877 107.684 49.0864 107.684C49.4504 107.684 49.7444 107.605 49.9684 107.446C50.1924 107.287 50.3744 107.026 50.5144 106.662C50.561 106.559 50.6077 106.489 50.6544 106.452C50.7104 106.405 50.785 106.382 50.8784 106.382H52.1104C52.2037 106.382 52.283 106.415 52.3484 106.48C52.423 106.545 52.4557 106.625 52.4464 106.718C52.4277 107.045 52.297 107.395 52.0544 107.768C51.8117 108.141 51.4384 108.463 50.9344 108.734C50.4304 109.005 49.805 109.14 49.0584 109.14ZM56.0204 109.14C55.5444 109.14 55.1058 109.047 54.7044 108.86C54.3124 108.664 53.9998 108.403 53.7664 108.076C53.5424 107.749 53.4304 107.39 53.4304 106.998C53.4304 106.363 53.6871 105.85 54.2004 105.458C54.7138 105.066 55.4184 104.8 56.3144 104.66L58.2324 104.38V104.086C58.2324 103.675 58.1298 103.367 57.9244 103.162C57.7191 102.957 57.3878 102.854 56.9304 102.854C56.6224 102.854 56.3704 102.915 56.1744 103.036C55.9878 103.148 55.8384 103.26 55.7264 103.372C55.6144 103.493 55.5398 103.573 55.5024 103.61C55.4651 103.722 55.3951 103.778 55.2924 103.778H54.2144C54.1304 103.778 54.0558 103.75 53.9904 103.694C53.9344 103.638 53.9064 103.563 53.9064 103.47C53.9158 103.237 54.0278 102.971 54.2424 102.672C54.4664 102.373 54.8071 102.117 55.2644 101.902C55.7218 101.687 56.2818 101.58 56.9444 101.58C58.0458 101.58 58.8484 101.827 59.3524 102.322C59.8564 102.817 60.1084 103.465 60.1084 104.268V108.664C60.1084 108.757 60.0758 108.837 60.0104 108.902C59.9544 108.967 59.8751 109 59.7724 109H58.6384C58.5451 109 58.4658 108.967 58.4004 108.902C58.3351 108.837 58.3024 108.757 58.3024 108.664V108.118C58.0971 108.417 57.8031 108.664 57.4204 108.86C57.0471 109.047 56.5804 109.14 56.0204 109.14ZM56.4964 107.81C57.0098 107.81 57.4298 107.642 57.7564 107.306C58.0831 106.97 58.2464 106.48 58.2464 105.836V105.542L56.8464 105.766C56.3051 105.85 55.8944 105.985 55.6144 106.172C55.3438 106.359 55.2084 106.587 55.2084 106.858C55.2084 107.157 55.3344 107.39 55.5864 107.558C55.8384 107.726 56.1418 107.81 56.4964 107.81ZM62.2545 111.66C62.1611 111.66 62.0818 111.627 62.0165 111.562C61.9511 111.506 61.9185 111.427 61.9185 111.324V102.056C61.9185 101.953 61.9511 101.874 62.0165 101.818C62.0818 101.753 62.1611 101.72 62.2545 101.72H63.3605C63.4631 101.72 63.5425 101.753 63.5985 101.818C63.6638 101.874 63.6965 101.953 63.6965 102.056V102.616C64.2191 101.925 64.9658 101.58 65.9365 101.58C66.8791 101.58 67.6025 101.879 68.1065 102.476C68.6105 103.064 68.8811 103.862 68.9185 104.87C68.9278 104.982 68.9325 105.145 68.9325 105.36C68.9325 105.584 68.9278 105.752 68.9185 105.864C68.8811 106.844 68.6105 107.637 68.1065 108.244C67.6025 108.841 66.8791 109.14 65.9365 109.14C64.9938 109.14 64.2751 108.809 63.7805 108.146V111.324C63.7805 111.427 63.7478 111.506 63.6825 111.562C63.6265 111.627 63.5471 111.66 63.4445 111.66H62.2545ZM65.4185 107.642C66.4265 107.642 66.9631 107.021 67.0285 105.78C67.0378 105.687 67.0425 105.547 67.0425 105.36C67.0425 105.173 67.0378 105.033 67.0285 104.94C66.9631 103.699 66.4265 103.078 65.4185 103.078C64.8771 103.078 64.4758 103.251 64.2145 103.596C63.9531 103.941 63.8085 104.366 63.7805 104.87L63.7665 105.402L63.7805 105.948C63.7991 106.415 63.9438 106.816 64.2145 107.152C64.4945 107.479 64.8958 107.642 65.4185 107.642ZM76.9233 109.14C75.8313 109.14 74.9866 108.86 74.3893 108.3C73.792 107.731 73.47 106.956 73.4233 105.976L73.4093 105.36L73.4233 104.744C73.47 103.773 73.7966 103.003 74.4033 102.434C75.01 101.865 75.85 101.58 76.9233 101.58C77.9966 101.58 78.8366 101.865 79.4433 102.434C80.05 103.003 80.3766 103.773 80.4233 104.744C80.4326 104.856 80.4373 105.061 80.4373 105.36C80.4373 105.659 80.4326 105.864 80.4233 105.976C80.3766 106.956 80.0546 107.731 79.4573 108.3C78.86 108.86 78.0153 109.14 76.9233 109.14ZM76.9233 107.754C77.418 107.754 77.8006 107.6 78.0713 107.292C78.342 106.975 78.4913 106.513 78.5193 105.906C78.5286 105.813 78.5333 105.631 78.5333 105.36C78.5333 105.089 78.5286 104.907 78.5193 104.814C78.4913 104.207 78.342 103.75 78.0713 103.442C77.8006 103.125 77.418 102.966 76.9233 102.966C76.4286 102.966 76.046 103.125 75.7753 103.442C75.5046 103.75 75.3553 104.207 75.3273 104.814L75.3133 105.36L75.3273 105.906C75.3553 106.513 75.5046 106.975 75.7753 107.292C76.046 107.6 76.4286 107.754 76.9233 107.754ZM82.3245 109C82.2311 109 82.1518 108.967 82.0865 108.902C82.0211 108.837 81.9885 108.757 81.9885 108.664V102.056C81.9885 101.963 82.0211 101.883 82.0865 101.818C82.1518 101.753 82.2311 101.72 82.3245 101.72H83.4725C83.5658 101.72 83.6451 101.753 83.7105 101.818C83.7758 101.883 83.8085 101.963 83.8085 102.056V102.63C84.3591 101.93 85.1385 101.58 86.1465 101.58C87.0051 101.58 87.6865 101.865 88.1905 102.434C88.6945 102.994 88.9465 103.759 88.9465 104.73V108.664C88.9465 108.757 88.9138 108.837 88.8485 108.902C88.7925 108.967 88.7131 109 88.6105 109H87.3785C87.2851 109 87.2058 108.967 87.1405 108.902C87.0751 108.837 87.0425 108.757 87.0425 108.664V104.814C87.0425 104.263 86.9071 103.839 86.6365 103.54C86.3751 103.232 85.9925 103.078 85.4885 103.078C84.9938 103.078 84.6018 103.232 84.3125 103.54C84.0325 103.848 83.8925 104.273 83.8925 104.814V108.664C83.8925 108.757 83.8598 108.837 83.7945 108.902C83.7385 108.967 83.6591 109 83.5565 109H82.3245ZM93.966 109C93.8727 109 93.7933 108.967 93.728 108.902C93.6627 108.837 93.63 108.757 93.63 108.664V107.95C93.63 107.698 93.7467 107.479 93.98 107.292L96.192 105.094C97.1533 104.338 97.8207 103.75 98.194 103.33C98.5767 102.901 98.768 102.481 98.768 102.07C98.768 101.631 98.6467 101.286 98.404 101.034C98.1707 100.782 97.816 100.656 97.34 100.656C96.8733 100.656 96.5047 100.796 96.234 101.076C95.9633 101.347 95.7953 101.701 95.73 102.14C95.702 102.252 95.6507 102.336 95.576 102.392C95.5013 102.439 95.4173 102.462 95.324 102.462H94.078C93.994 102.462 93.924 102.434 93.868 102.378C93.812 102.322 93.784 102.257 93.784 102.182C93.8027 101.631 93.952 101.118 94.232 100.642C94.512 100.157 94.918 99.7693 95.45 99.48C95.982 99.1813 96.6073 99.032 97.326 99.032C98.0727 99.032 98.7027 99.1627 99.216 99.424C99.7387 99.676 100.131 100.026 100.392 100.474C100.653 100.922 100.784 101.431 100.784 102C100.784 102.625 100.607 103.19 100.252 103.694C99.9067 104.198 99.3747 104.739 98.656 105.318L96.668 107.334H100.658C100.761 107.334 100.84 107.367 100.896 107.432C100.961 107.488 100.994 107.567 100.994 107.67V108.664C100.994 108.757 100.961 108.837 100.896 108.902C100.84 108.967 100.761 109 100.658 109H93.966ZM103.698 109C103.614 109 103.544 108.972 103.488 108.916C103.432 108.851 103.404 108.776 103.404 108.692C103.404 108.664 103.413 108.622 103.432 108.566L106.806 100.866H102.41C102.317 100.866 102.237 100.833 102.172 100.768C102.107 100.703 102.074 100.623 102.074 100.53V99.55C102.074 99.4473 102.102 99.3633 102.158 99.298C102.223 99.2327 102.307 99.2 102.41 99.2H108.556C108.659 99.2 108.738 99.2327 108.794 99.298C108.859 99.3633 108.892 99.4473 108.892 99.55V100.418C108.892 100.605 108.85 100.805 108.766 101.02L105.42 108.664C105.317 108.888 105.168 109 104.972 109H103.698ZM113.148 109C113.054 109 112.975 108.967 112.91 108.902C112.844 108.837 112.812 108.757 112.812 108.664V101.412L110.684 103.05C110.628 103.097 110.562 103.12 110.488 103.12C110.376 103.12 110.282 103.069 110.208 102.966L109.62 102.21C109.573 102.135 109.55 102.065 109.55 102C109.55 101.888 109.601 101.795 109.704 101.72L112.84 99.298C112.924 99.2327 113.04 99.2 113.19 99.2H114.422C114.524 99.2 114.604 99.2327 114.66 99.298C114.725 99.354 114.758 99.4333 114.758 99.536V108.664C114.758 108.757 114.725 108.837 114.66 108.902C114.604 108.967 114.524 109 114.422 109H113.148ZM122.575 109.14C121.633 109.14 120.909 108.837 120.405 108.23C119.901 107.623 119.631 106.816 119.593 105.808L119.579 105.346L119.593 104.898C119.621 103.918 119.887 103.12 120.391 102.504C120.905 101.888 121.633 101.58 122.575 101.58C123.481 101.58 124.199 101.888 124.731 102.504V99.396C124.731 99.2933 124.764 99.214 124.829 99.158C124.895 99.0927 124.974 99.06 125.067 99.06H126.257C126.36 99.06 126.439 99.0927 126.495 99.158C126.561 99.214 126.593 99.2933 126.593 99.396V108.664C126.593 108.757 126.561 108.837 126.495 108.902C126.439 108.967 126.36 109 126.257 109H125.151C125.058 109 124.979 108.967 124.913 108.902C124.848 108.837 124.815 108.757 124.815 108.664V108.146C124.283 108.809 123.537 109.14 122.575 109.14ZM123.093 107.642C123.635 107.642 124.036 107.469 124.297 107.124C124.559 106.779 124.703 106.354 124.731 105.85C124.741 105.738 124.745 105.556 124.745 105.304C124.745 105.061 124.741 104.884 124.731 104.772C124.713 104.305 124.563 103.909 124.283 103.582C124.013 103.246 123.616 103.078 123.093 103.078C122.085 103.078 121.549 103.699 121.483 104.94L121.469 105.36L121.483 105.78C121.549 107.021 122.085 107.642 123.093 107.642ZM130.573 109.14C130.097 109.14 129.658 109.047 129.257 108.86C128.865 108.664 128.552 108.403 128.319 108.076C128.095 107.749 127.983 107.39 127.983 106.998C127.983 106.363 128.24 105.85 128.753 105.458C129.266 105.066 129.971 104.8 130.867 104.66L132.785 104.38V104.086C132.785 103.675 132.682 103.367 132.477 103.162C132.272 102.957 131.94 102.854 131.483 102.854C131.175 102.854 130.923 102.915 130.727 103.036C130.54 103.148 130.391 103.26 130.279 103.372C130.167 103.493 130.092 103.573 130.055 103.61C130.018 103.722 129.948 103.778 129.845 103.778H128.767C128.683 103.778 128.608 103.75 128.543 103.694C128.487 103.638 128.459 103.563 128.459 103.47C128.468 103.237 128.58 102.971 128.795 102.672C129.019 102.373 129.36 102.117 129.817 101.902C130.274 101.687 130.834 101.58 131.497 101.58C132.598 101.58 133.401 101.827 133.905 102.322C134.409 102.817 134.661 103.465 134.661 104.268V108.664C134.661 108.757 134.628 108.837 134.563 108.902C134.507 108.967 134.428 109 134.325 109H133.191C133.098 109 133.018 108.967 132.953 108.902C132.888 108.837 132.855 108.757 132.855 108.664V108.118C132.65 108.417 132.356 108.664 131.973 108.86C131.6 109.047 131.133 109.14 130.573 109.14ZM131.049 107.81C131.562 107.81 131.982 107.642 132.309 107.306C132.636 106.97 132.799 106.48 132.799 105.836V105.542L131.399 105.766C130.858 105.85 130.447 105.985 130.167 106.172C129.896 106.359 129.761 106.587 129.761 106.858C129.761 107.157 129.887 107.39 130.139 107.558C130.391 107.726 130.694 107.81 131.049 107.81ZM137.582 111.66C137.507 111.66 137.442 111.632 137.386 111.576C137.33 111.52 137.302 111.455 137.302 111.38C137.302 111.296 137.32 111.221 137.358 111.156L138.45 108.566L135.762 102.224C135.724 102.14 135.706 102.075 135.706 102.028C135.715 101.944 135.748 101.874 135.804 101.818C135.86 101.753 135.93 101.72 136.014 101.72H137.148C137.325 101.72 137.451 101.809 137.526 101.986L139.388 106.564L141.306 101.986C141.38 101.809 141.506 101.72 141.684 101.72H142.804C142.878 101.72 142.944 101.748 143 101.804C143.065 101.86 143.098 101.925 143.098 102C143.098 102.065 143.079 102.14 143.042 102.224L139.08 111.394C138.996 111.571 138.865 111.66 138.688 111.66H137.582ZM146.844 109.14C146.144 109.14 145.556 109.037 145.08 108.832C144.604 108.617 144.249 108.37 144.016 108.09C143.792 107.801 143.68 107.553 143.68 107.348C143.68 107.255 143.713 107.18 143.778 107.124C143.843 107.068 143.918 107.04 144.002 107.04H145.108C145.192 107.04 145.262 107.073 145.318 107.138C145.355 107.166 145.453 107.25 145.612 107.39C145.771 107.539 145.957 107.656 146.172 107.74C146.387 107.824 146.625 107.866 146.886 107.866C147.259 107.866 147.567 107.791 147.81 107.642C148.053 107.493 148.174 107.287 148.174 107.026C148.174 106.83 148.118 106.671 148.006 106.55C147.903 106.429 147.712 106.321 147.432 106.228C147.152 106.125 146.737 106.018 146.186 105.906C145.393 105.738 144.805 105.481 144.422 105.136C144.049 104.791 143.862 104.333 143.862 103.764C143.862 103.391 143.974 103.041 144.198 102.714C144.422 102.378 144.753 102.107 145.192 101.902C145.64 101.687 146.172 101.58 146.788 101.58C147.413 101.58 147.955 101.683 148.412 101.888C148.869 102.084 149.215 102.322 149.448 102.602C149.691 102.873 149.812 103.115 149.812 103.33C149.812 103.414 149.779 103.489 149.714 103.554C149.658 103.61 149.588 103.638 149.504 103.638H148.468C148.393 103.638 148.314 103.605 148.23 103.54C148.165 103.493 148.062 103.405 147.922 103.274C147.782 103.143 147.619 103.041 147.432 102.966C147.245 102.891 147.026 102.854 146.774 102.854C146.429 102.854 146.158 102.929 145.962 103.078C145.775 103.227 145.682 103.423 145.682 103.666C145.682 103.843 145.729 103.988 145.822 104.1C145.915 104.212 146.097 104.319 146.368 104.422C146.639 104.525 147.045 104.627 147.586 104.73C148.482 104.907 149.121 105.183 149.504 105.556C149.896 105.929 150.092 106.387 150.092 106.928C150.092 107.581 149.807 108.113 149.238 108.524C148.669 108.935 147.871 109.14 146.844 109.14Z" fill="white"/>
<path d="M358.428 109C358.335 109 358.255 108.967 358.19 108.902C358.125 108.837 358.092 108.757 358.092 108.664V99.55C358.092 99.4473 358.12 99.3633 358.176 99.298C358.241 99.2327 358.325 99.2 358.428 99.2H359.702C359.805 99.2 359.884 99.2327 359.94 99.298C360.005 99.3633 360.038 99.4473 360.038 99.55V103.162H364.168V99.55C364.168 99.4473 364.196 99.3633 364.252 99.298C364.317 99.2327 364.401 99.2 364.504 99.2H365.764C365.867 99.2 365.951 99.2327 366.016 99.298C366.081 99.3633 366.114 99.4473 366.114 99.55V108.664C366.114 108.767 366.081 108.851 366.016 108.916C365.951 108.972 365.867 109 365.764 109H364.504C364.411 109 364.331 108.967 364.266 108.902C364.201 108.837 364.168 108.757 364.168 108.664V104.912H360.038V108.664C360.038 108.757 360.005 108.837 359.94 108.902C359.884 108.967 359.805 109 359.702 109H358.428ZM370.237 109.14C369.761 109.14 369.323 109.047 368.921 108.86C368.529 108.664 368.217 108.403 367.983 108.076C367.759 107.749 367.647 107.39 367.647 106.998C367.647 106.363 367.904 105.85 368.417 105.458C368.931 105.066 369.635 104.8 370.531 104.66L372.449 104.38V104.086C372.449 103.675 372.347 103.367 372.141 103.162C371.936 102.957 371.605 102.854 371.147 102.854C370.839 102.854 370.587 102.915 370.391 103.036C370.205 103.148 370.055 103.26 369.943 103.372C369.831 103.493 369.757 103.573 369.719 103.61C369.682 103.722 369.612 103.778 369.509 103.778H368.431C368.347 103.778 368.273 103.75 368.207 103.694C368.151 103.638 368.123 103.563 368.123 103.47C368.133 103.237 368.245 102.971 368.459 102.672C368.683 102.373 369.024 102.117 369.481 101.902C369.939 101.687 370.499 101.58 371.161 101.58C372.263 101.58 373.065 101.827 373.569 102.322C374.073 102.817 374.325 103.465 374.325 104.268V108.664C374.325 108.757 374.293 108.837 374.227 108.902C374.171 108.967 374.092 109 373.989 109H372.855C372.762 109 372.683 108.967 372.617 108.902C372.552 108.837 372.519 108.757 372.519 108.664V108.118C372.314 108.417 372.02 108.664 371.637 108.86C371.264 109.047 370.797 109.14 370.237 109.14ZM370.713 107.81C371.227 107.81 371.647 107.642 371.973 107.306C372.3 106.97 372.463 106.48 372.463 105.836V105.542L371.063 105.766C370.522 105.85 370.111 105.985 369.831 106.172C369.561 106.359 369.425 106.587 369.425 106.858C369.425 107.157 369.551 107.39 369.803 107.558C370.055 107.726 370.359 107.81 370.713 107.81ZM376.457 109C376.364 109 376.285 108.967 376.219 108.902C376.154 108.837 376.121 108.757 376.121 108.664V102.07C376.121 101.977 376.154 101.897 376.219 101.832C376.285 101.757 376.364 101.72 376.457 101.72H377.591C377.694 101.72 377.778 101.753 377.843 101.818C377.909 101.883 377.941 101.967 377.941 102.07V102.644C378.165 102.345 378.445 102.117 378.781 101.958C379.127 101.799 379.519 101.72 379.957 101.72H380.531C380.634 101.72 380.713 101.753 380.769 101.818C380.835 101.874 380.867 101.953 380.867 102.056V103.064C380.867 103.157 380.835 103.237 380.769 103.302C380.713 103.367 380.634 103.4 380.531 103.4H379.439C379.001 103.4 378.655 103.526 378.403 103.778C378.151 104.03 378.025 104.375 378.025 104.814V108.664C378.025 108.757 377.993 108.837 377.927 108.902C377.862 108.967 377.778 109 377.675 109H376.457ZM384.552 109.14C383.609 109.14 382.886 108.837 382.382 108.23C381.878 107.623 381.607 106.816 381.57 105.808L381.556 105.346L381.57 104.898C381.598 103.918 381.864 103.12 382.368 102.504C382.881 101.888 383.609 101.58 384.552 101.58C385.457 101.58 386.176 101.888 386.708 102.504V99.396C386.708 99.2933 386.74 99.214 386.806 99.158C386.871 99.0927 386.95 99.06 387.044 99.06H388.234C388.336 99.06 388.416 99.0927 388.472 99.158C388.537 99.214 388.57 99.2933 388.57 99.396V108.664C388.57 108.757 388.537 108.837 388.472 108.902C388.416 108.967 388.336 109 388.234 109H387.128C387.034 109 386.955 108.967 386.89 108.902C386.824 108.837 386.792 108.757 386.792 108.664V108.146C386.26 108.809 385.513 109.14 384.552 109.14ZM385.07 107.642C385.611 107.642 386.012 107.469 386.274 107.124C386.535 106.779 386.68 106.354 386.708 105.85C386.717 105.738 386.722 105.556 386.722 105.304C386.722 105.061 386.717 104.884 386.708 104.772C386.689 104.305 386.54 103.909 386.26 103.582C385.989 103.246 385.592 103.078 385.07 103.078C384.062 103.078 383.525 103.699 383.46 104.94L383.446 105.36L383.46 105.78C383.525 107.021 384.062 107.642 385.07 107.642ZM393.586 109.14C392.559 109.14 391.738 108.855 391.122 108.286C390.515 107.717 390.193 106.928 390.156 105.92L390.142 105.36L390.156 104.8C390.193 103.792 390.515 103.003 391.122 102.434C391.738 101.865 392.559 101.58 393.586 101.58C394.314 101.58 394.93 101.711 395.434 101.972C395.947 102.233 396.325 102.555 396.568 102.938C396.82 103.311 396.955 103.666 396.974 104.002C396.983 104.095 396.95 104.175 396.876 104.24C396.81 104.305 396.731 104.338 396.638 104.338H395.406C395.312 104.338 395.238 104.319 395.182 104.282C395.135 104.235 395.088 104.161 395.042 104.058C394.902 103.694 394.715 103.433 394.482 103.274C394.258 103.115 393.968 103.036 393.614 103.036C393.138 103.036 392.764 103.19 392.494 103.498C392.223 103.797 392.078 104.254 392.06 104.87L392.046 105.388L392.06 105.85C392.097 107.073 392.615 107.684 393.614 107.684C393.978 107.684 394.272 107.605 394.496 107.446C394.72 107.287 394.902 107.026 395.042 106.662C395.088 106.559 395.135 106.489 395.182 106.452C395.238 106.405 395.312 106.382 395.406 106.382H396.638C396.731 106.382 396.81 106.415 396.876 106.48C396.95 106.545 396.983 106.625 396.974 106.718C396.955 107.045 396.824 107.395 396.582 107.768C396.339 108.141 395.966 108.463 395.462 108.734C394.958 109.005 394.332 109.14 393.586 109.14ZM400.548 109.14C400.072 109.14 399.633 109.047 399.232 108.86C398.84 108.664 398.527 108.403 398.294 108.076C398.07 107.749 397.958 107.39 397.958 106.998C397.958 106.363 398.214 105.85 398.728 105.458C399.241 105.066 399.946 104.8 400.842 104.66L402.76 104.38V104.086C402.76 103.675 402.657 103.367 402.452 103.162C402.246 102.957 401.915 102.854 401.458 102.854C401.15 102.854 400.898 102.915 400.702 103.036C400.515 103.148 400.366 103.26 400.254 103.372C400.142 103.493 400.067 103.573 400.03 103.61C399.992 103.722 399.922 103.778 399.82 103.778H398.742C398.658 103.778 398.583 103.75 398.518 103.694C398.462 103.638 398.434 103.563 398.434 103.47C398.443 103.237 398.555 102.971 398.77 102.672C398.994 102.373 399.334 102.117 399.792 101.902C400.249 101.687 400.809 101.58 401.472 101.58C402.573 101.58 403.376 101.827 403.88 102.322C404.384 102.817 404.636 103.465 404.636 104.268V108.664C404.636 108.757 404.603 108.837 404.538 108.902C404.482 108.967 404.402 109 404.3 109H403.166C403.072 109 402.993 108.967 402.928 108.902C402.862 108.837 402.83 108.757 402.83 108.664V108.118C402.624 108.417 402.33 108.664 401.948 108.86C401.574 109.047 401.108 109.14 400.548 109.14ZM401.024 107.81C401.537 107.81 401.957 107.642 402.284 107.306C402.61 106.97 402.774 106.48 402.774 105.836V105.542L401.374 105.766C400.832 105.85 400.422 105.985 400.142 106.172C399.871 106.359 399.736 106.587 399.736 106.858C399.736 107.157 399.862 107.39 400.114 107.558C400.366 107.726 400.669 107.81 401.024 107.81ZM406.782 111.66C406.688 111.66 406.609 111.627 406.544 111.562C406.478 111.506 406.446 111.427 406.446 111.324V102.056C406.446 101.953 406.478 101.874 406.544 101.818C406.609 101.753 406.688 101.72 406.782 101.72H407.888C407.99 101.72 408.07 101.753 408.126 101.818C408.191 101.874 408.224 101.953 408.224 102.056V102.616C408.746 101.925 409.493 101.58 410.464 101.58C411.406 101.58 412.13 101.879 412.634 102.476C413.138 103.064 413.408 103.862 413.446 104.87C413.455 104.982 413.46 105.145 413.46 105.36C413.46 105.584 413.455 105.752 413.446 105.864C413.408 106.844 413.138 107.637 412.634 108.244C412.13 108.841 411.406 109.14 410.464 109.14C409.521 109.14 408.802 108.809 408.308 108.146V111.324C408.308 111.427 408.275 111.506 408.21 111.562C408.154 111.627 408.074 111.66 407.972 111.66H406.782ZM409.946 107.642C410.954 107.642 411.49 107.021 411.556 105.78C411.565 105.687 411.57 105.547 411.57 105.36C411.57 105.173 411.565 105.033 411.556 104.94C411.49 103.699 410.954 103.078 409.946 103.078C409.404 103.078 409.003 103.251 408.742 103.596C408.48 103.941 408.336 104.366 408.308 104.87L408.294 105.402L408.308 105.948C408.326 106.415 408.471 106.816 408.742 107.152C409.022 107.479 409.423 107.642 409.946 107.642Z" fill="white"/>
</svg>
