<svg width="425" height="112" viewBox="0 0 425 112" fill="none" xmlns="http://www.w3.org/2000/svg">
<rect y="35" width="425" height="28" rx="14" fill="#43E8E1"/>
<rect y="35" width="425" height="28" rx="14" fill="#43E8E1"/>
<rect y="35" width="425" height="28" rx="14" fill="#43E8E1"/>
<rect x="126" y="35" width="299" height="28" rx="14" fill="#43E8E1"/>
<rect x="126" y="35" width="299" height="28" rx="14" fill="#43E8E1"/>
<rect x="126" y="35" width="299" height="28" rx="14" fill="#BDBDBD"/>
<rect x="54" y="29" width="2" height="61" fill="#F2F2F2"/>
<path d="M20.06 13.4C19.9667 13.4 19.8873 13.3673 19.822 13.302C19.7567 13.246 19.724 13.1667 19.724 13.064V12.084C19.052 12.0187 18.4733 11.86 17.988 11.608C17.512 11.3467 17.148 11.0293 16.896 10.656C16.6533 10.2733 16.5227 9.86733 16.504 9.438C16.504 9.354 16.532 9.284 16.588 9.228C16.6533 9.172 16.728 9.144 16.812 9.144H18.058C18.1607 9.144 18.24 9.16733 18.296 9.214C18.3613 9.25133 18.422 9.31667 18.478 9.41C18.5807 9.72733 18.7953 9.99333 19.122 10.208C19.458 10.4227 19.92 10.53 20.508 10.53C21.1613 10.53 21.656 10.4227 21.992 10.208C22.328 9.984 22.496 9.676 22.496 9.284C22.496 9.02267 22.412 8.808 22.244 8.64C22.076 8.472 21.8193 8.32733 21.474 8.206C21.1287 8.07533 20.62 7.926 19.948 7.758C18.8467 7.49667 18.0393 7.15133 17.526 6.722C17.022 6.28333 16.77 5.66267 16.77 4.86C16.77 4.132 17.0313 3.52067 17.554 3.026C18.086 2.522 18.8093 2.214 19.724 2.102V1.136C19.724 1.03333 19.7567 0.953999 19.822 0.897999C19.8873 0.832666 19.9667 0.8 20.06 0.8H20.914C21.0073 0.8 21.0867 0.832666 21.152 0.897999C21.2173 0.963333 21.25 1.04267 21.25 1.136V2.13C21.8567 2.214 22.3747 2.396 22.804 2.676C23.2427 2.94667 23.574 3.264 23.798 3.628C24.0313 3.992 24.1573 4.34667 24.176 4.692C24.176 4.776 24.148 4.846 24.092 4.902C24.036 4.958 23.966 4.986 23.882 4.986H22.58C22.3747 4.986 22.2347 4.89733 22.16 4.72C22.1133 4.42133 21.9313 4.174 21.614 3.978C21.2967 3.77267 20.9 3.67 20.424 3.67C19.9107 3.67 19.5047 3.768 19.206 3.964C18.9073 4.16 18.758 4.44467 18.758 4.818C18.758 5.07933 18.8327 5.294 18.982 5.462C19.1313 5.63 19.3647 5.77933 19.682 5.91C20.0087 6.04067 20.4753 6.18533 21.082 6.344C21.9033 6.53067 22.5567 6.74067 23.042 6.974C23.5367 7.20733 23.9007 7.50133 24.134 7.856C24.3673 8.21067 24.484 8.66333 24.484 9.214C24.484 10.0167 24.1947 10.6747 23.616 11.188C23.0373 11.692 22.2487 11.9953 21.25 12.098V13.064C21.25 13.1573 21.2173 13.2367 21.152 13.302C21.0867 13.3673 21.0073 13.4 20.914 13.4H20.06ZM25.9621 12C25.8688 12 25.7894 11.9673 25.7241 11.902C25.6588 11.8367 25.6261 11.7573 25.6261 11.664V10.95C25.6261 10.698 25.7428 10.4787 25.9761 10.292L28.1881 8.094C29.1494 7.338 29.8168 6.75 30.1901 6.33C30.5728 5.90067 30.7641 5.48067 30.7641 5.07C30.7641 4.63133 30.6428 4.286 30.4001 4.034C30.1668 3.782 29.8121 3.656 29.3361 3.656C28.8694 3.656 28.5008 3.796 28.2301 4.076C27.9594 4.34667 27.7914 4.70133 27.7261 5.14C27.6981 5.252 27.6468 5.336 27.5721 5.392C27.4974 5.43867 27.4134 5.462 27.3201 5.462H26.0741C25.9901 5.462 25.9201 5.434 25.8641 5.378C25.8081 5.322 25.7801 5.25667 25.7801 5.182C25.7988 4.63133 25.9481 4.118 26.2281 3.642C26.5081 3.15667 26.9141 2.76933 27.4461 2.48C27.9781 2.18133 28.6034 2.032 29.3221 2.032C30.0688 2.032 30.6988 2.16267 31.2121 2.424C31.7348 2.676 32.1268 3.026 32.3881 3.474C32.6494 3.922 32.7801 4.43067 32.7801 5C32.7801 5.62533 32.6028 6.19 32.2481 6.694C31.9028 7.198 31.3708 7.73933 30.6521 8.318L28.6641 10.334H32.6541C32.7568 10.334 32.8361 10.3667 32.8921 10.432C32.9574 10.488 32.9901 10.5673 32.9901 10.67V11.664C32.9901 11.7573 32.9574 11.8367 32.8921 11.902C32.8361 11.9673 32.7568 12 32.6541 12H25.9621ZM37.9481 12.154C37.1734 12.154 36.5061 12.0233 35.9461 11.762C35.3954 11.5007 34.9707 11.1553 34.6721 10.726C34.3827 10.2967 34.2287 9.83467 34.2101 9.34V9.312C34.2101 9.23733 34.2381 9.17667 34.2941 9.13C34.3501 9.08333 34.4201 9.06 34.5041 9.06H35.8061C36.0207 9.06 36.1607 9.15333 36.2261 9.34C36.3567 9.75067 36.5714 10.054 36.8701 10.25C37.1781 10.446 37.5374 10.544 37.9481 10.544C38.4707 10.544 38.9047 10.3853 39.2501 10.068C39.6047 9.75067 39.7821 9.30733 39.7821 8.738C39.7821 8.234 39.6047 7.82333 39.2501 7.506C38.9047 7.18867 38.4707 7.03 37.9481 7.03C37.6681 7.03 37.4394 7.06733 37.2621 7.142C37.0847 7.21667 36.9121 7.31933 36.7441 7.45C36.6321 7.534 36.5434 7.59467 36.4781 7.632C36.4221 7.66 36.3521 7.674 36.2681 7.674H34.9801C34.8961 7.674 34.8214 7.646 34.7561 7.59C34.7001 7.52467 34.6721 7.45 34.6721 7.366L35.1621 2.578C35.1714 2.466 35.2087 2.37733 35.2741 2.312C35.3487 2.23733 35.4421 2.2 35.5541 2.2H40.8181C40.9114 2.2 40.9907 2.23267 41.0561 2.298C41.1214 2.36333 41.1541 2.44267 41.1541 2.536V3.474C41.1541 3.56733 41.1214 3.64667 41.0561 3.712C40.9907 3.77733 40.9114 3.81 40.8181 3.81H36.7721L36.5481 6.092C37.0054 5.77467 37.6167 5.616 38.3821 5.616C38.9887 5.616 39.5487 5.74667 40.0621 6.008C40.5847 6.26 41.0001 6.62867 41.3081 7.114C41.6161 7.59 41.7701 8.14533 41.7701 8.78C41.7701 9.46133 41.6114 10.0587 41.2941 10.572C40.9767 11.076 40.5287 11.468 39.9501 11.748C39.3807 12.0187 38.7134 12.154 37.9481 12.154ZM46.9377 12.14C45.6964 12.14 44.7677 11.7947 44.1517 11.104C43.545 10.4133 43.2137 9.508 43.1577 8.388C43.1484 8.136 43.1437 7.70667 43.1437 7.1C43.1437 6.484 43.1484 6.04533 43.1577 5.784C43.2044 4.68267 43.5404 3.78667 44.1657 3.096C44.791 2.40533 45.715 2.06 46.9377 2.06C48.1697 2.06 49.0984 2.40533 49.7237 3.096C50.349 3.78667 50.6804 4.68267 50.7177 5.784C50.7364 6.04533 50.7457 6.484 50.7457 7.1C50.7457 7.70667 50.7364 8.136 50.7177 8.388C50.671 9.508 50.3397 10.4133 49.7237 11.104C49.117 11.7947 48.1884 12.14 46.9377 12.14ZM46.9377 10.53C47.5257 10.53 47.9644 10.3387 48.2537 9.956C48.543 9.564 48.697 9.018 48.7157 8.318C48.7344 7.77667 48.7437 7.366 48.7437 7.086C48.7437 6.778 48.7344 6.372 48.7157 5.868C48.697 5.17733 48.543 4.636 48.2537 4.244C47.9644 3.852 47.5257 3.656 46.9377 3.656C46.359 3.656 45.9204 3.852 45.6217 4.244C45.3324 4.636 45.1784 5.17733 45.1597 5.868C45.1504 6.12 45.1457 6.526 45.1457 7.086C45.1457 7.63667 45.1504 8.04733 45.1597 8.318C45.1784 9.018 45.3324 9.564 45.6217 9.956C45.9204 10.3387 46.359 10.53 46.9377 10.53ZM52.2365 13.05C52.1525 13.05 52.0872 13.022 52.0405 12.966C51.9938 12.91 51.9752 12.84 51.9845 12.756L52.3625 10.376C52.3812 10.2453 52.4278 10.138 52.5025 10.054C52.5772 9.97 52.6798 9.928 52.8105 9.928H54.0985C54.1638 9.928 54.2198 9.956 54.2665 10.012C54.3225 10.0587 54.3505 10.1193 54.3505 10.194C54.3505 10.2407 54.3365 10.3013 54.3085 10.376L53.4125 12.7C53.3658 12.812 53.3052 12.896 53.2305 12.952C53.1652 13.0173 53.0718 13.05 52.9505 13.05H52.2365ZM59.5295 12.14C58.2882 12.14 57.3595 11.7947 56.7435 11.104C56.1368 10.4133 55.8055 9.508 55.7495 8.388C55.7402 8.136 55.7355 7.70667 55.7355 7.1C55.7355 6.484 55.7402 6.04533 55.7495 5.784C55.7962 4.68267 56.1322 3.78667 56.7575 3.096C57.3828 2.40533 58.3068 2.06 59.5295 2.06C60.7615 2.06 61.6902 2.40533 62.3155 3.096C62.9408 3.78667 63.2722 4.68267 63.3095 5.784C63.3282 6.04533 63.3375 6.484 63.3375 7.1C63.3375 7.70667 63.3282 8.136 63.3095 8.388C63.2628 9.508 62.9315 10.4133 62.3155 11.104C61.7088 11.7947 60.7802 12.14 59.5295 12.14ZM59.5295 10.53C60.1175 10.53 60.5562 10.3387 60.8455 9.956C61.1348 9.564 61.2888 9.018 61.3075 8.318C61.3262 7.77667 61.3355 7.366 61.3355 7.086C61.3355 6.778 61.3262 6.372 61.3075 5.868C61.2888 5.17733 61.1348 4.636 60.8455 4.244C60.5562 3.852 60.1175 3.656 59.5295 3.656C58.9508 3.656 58.5122 3.852 58.2135 4.244C57.9242 4.636 57.7702 5.17733 57.7515 5.868C57.7422 6.12 57.7375 6.526 57.7375 7.086C57.7375 7.63667 57.7422 8.04733 57.7515 8.318C57.7702 9.018 57.9242 9.564 58.2135 9.956C58.5122 10.3387 58.9508 10.53 59.5295 10.53ZM68.7307 12.14C67.4893 12.14 66.5607 11.7947 65.9447 11.104C65.338 10.4133 65.0067 9.508 64.9507 8.388C64.9413 8.136 64.9367 7.70667 64.9367 7.1C64.9367 6.484 64.9413 6.04533 64.9507 5.784C64.9973 4.68267 65.3333 3.78667 65.9587 3.096C66.584 2.40533 67.508 2.06 68.7307 2.06C69.9627 2.06 70.8913 2.40533 71.5167 3.096C72.142 3.78667 72.4733 4.68267 72.5107 5.784C72.5293 6.04533 72.5387 6.484 72.5387 7.1C72.5387 7.70667 72.5293 8.136 72.5107 8.388C72.464 9.508 72.1327 10.4133 71.5167 11.104C70.91 11.7947 69.9813 12.14 68.7307 12.14ZM68.7307 10.53C69.3187 10.53 69.7573 10.3387 70.0467 9.956C70.336 9.564 70.49 9.018 70.5087 8.318C70.5273 7.77667 70.5367 7.366 70.5367 7.086C70.5367 6.778 70.5273 6.372 70.5087 5.868C70.49 5.17733 70.336 4.636 70.0467 4.244C69.7573 3.852 69.3187 3.656 68.7307 3.656C68.152 3.656 67.7133 3.852 67.4147 4.244C67.1253 4.636 66.9713 5.17733 66.9527 5.868C66.9433 6.12 66.9387 6.526 66.9387 7.086C66.9387 7.63667 66.9433 8.04733 66.9527 8.318C66.9713 9.018 67.1253 9.564 67.4147 9.956C67.7133 10.3387 68.152 10.53 68.7307 10.53ZM77.9318 12.14C76.6905 12.14 75.7618 11.7947 75.1458 11.104C74.5392 10.4133 74.2078 9.508 74.1518 8.388C74.1425 8.136 74.1378 7.70667 74.1378 7.1C74.1378 6.484 74.1425 6.04533 74.1518 5.784C74.1985 4.68267 74.5345 3.78667 75.1598 3.096C75.7852 2.40533 76.7092 2.06 77.9318 2.06C79.1638 2.06 80.0925 2.40533 80.7178 3.096C81.3432 3.78667 81.6745 4.68267 81.7118 5.784C81.7305 6.04533 81.7398 6.484 81.7398 7.1C81.7398 7.70667 81.7305 8.136 81.7118 8.388C81.6652 9.508 81.3338 10.4133 80.7178 11.104C80.1112 11.7947 79.1825 12.14 77.9318 12.14ZM77.9318 10.53C78.5198 10.53 78.9585 10.3387 79.2478 9.956C79.5372 9.564 79.6912 9.018 79.7098 8.318C79.7285 7.77667 79.7378 7.366 79.7378 7.086C79.7378 6.778 79.7285 6.372 79.7098 5.868C79.6912 5.17733 79.5372 4.636 79.2478 4.244C78.9585 3.852 78.5198 3.656 77.9318 3.656C77.3532 3.656 76.9145 3.852 76.6158 4.244C76.3265 4.636 76.1725 5.17733 76.1538 5.868C76.1445 6.12 76.1398 6.526 76.1398 7.086C76.1398 7.63667 76.1445 8.04733 76.1538 8.318C76.1725 9.018 76.3265 9.564 76.6158 9.956C76.9145 10.3387 77.3532 10.53 77.9318 10.53Z" fill="white"/>
<path d="M359.06 13.4C358.967 13.4 358.887 13.3673 358.822 13.302C358.757 13.246 358.724 13.1667 358.724 13.064V12.084C358.052 12.0187 357.473 11.86 356.988 11.608C356.512 11.3467 356.148 11.0293 355.896 10.656C355.653 10.2733 355.523 9.86733 355.504 9.438C355.504 9.354 355.532 9.284 355.588 9.228C355.653 9.172 355.728 9.144 355.812 9.144H357.058C357.161 9.144 357.24 9.16733 357.296 9.214C357.361 9.25133 357.422 9.31667 357.478 9.41C357.581 9.72733 357.795 9.99333 358.122 10.208C358.458 10.4227 358.92 10.53 359.508 10.53C360.161 10.53 360.656 10.4227 360.992 10.208C361.328 9.984 361.496 9.676 361.496 9.284C361.496 9.02267 361.412 8.808 361.244 8.64C361.076 8.472 360.819 8.32733 360.474 8.206C360.129 8.07533 359.62 7.926 358.948 7.758C357.847 7.49667 357.039 7.15133 356.526 6.722C356.022 6.28333 355.77 5.66267 355.77 4.86C355.77 4.132 356.031 3.52067 356.554 3.026C357.086 2.522 357.809 2.214 358.724 2.102V1.136C358.724 1.03333 358.757 0.953999 358.822 0.897999C358.887 0.832666 358.967 0.8 359.06 0.8H359.914C360.007 0.8 360.087 0.832666 360.152 0.897999C360.217 0.963333 360.25 1.04267 360.25 1.136V2.13C360.857 2.214 361.375 2.396 361.804 2.676C362.243 2.94667 362.574 3.264 362.798 3.628C363.031 3.992 363.157 4.34667 363.176 4.692C363.176 4.776 363.148 4.846 363.092 4.902C363.036 4.958 362.966 4.986 362.882 4.986H361.58C361.375 4.986 361.235 4.89733 361.16 4.72C361.113 4.42133 360.931 4.174 360.614 3.978C360.297 3.77267 359.9 3.67 359.424 3.67C358.911 3.67 358.505 3.768 358.206 3.964C357.907 4.16 357.758 4.44467 357.758 4.818C357.758 5.07933 357.833 5.294 357.982 5.462C358.131 5.63 358.365 5.77933 358.682 5.91C359.009 6.04067 359.475 6.18533 360.082 6.344C360.903 6.53067 361.557 6.74067 362.042 6.974C362.537 7.20733 362.901 7.50133 363.134 7.856C363.367 8.21067 363.484 8.66333 363.484 9.214C363.484 10.0167 363.195 10.6747 362.616 11.188C362.037 11.692 361.249 11.9953 360.25 12.098V13.064C360.25 13.1573 360.217 13.2367 360.152 13.302C360.087 13.3673 360.007 13.4 359.914 13.4H359.06ZM368.28 12.154C367.505 12.154 366.838 12.0233 366.278 11.762C365.727 11.5007 365.303 11.1553 365.004 10.726C364.715 10.2967 364.561 9.83467 364.542 9.34V9.312C364.542 9.23733 364.57 9.17667 364.626 9.13C364.682 9.08333 364.752 9.06 364.836 9.06H366.138C366.353 9.06 366.493 9.15333 366.558 9.34C366.689 9.75067 366.903 10.054 367.202 10.25C367.51 10.446 367.869 10.544 368.28 10.544C368.803 10.544 369.237 10.3853 369.582 10.068C369.937 9.75067 370.114 9.30733 370.114 8.738C370.114 8.234 369.937 7.82333 369.582 7.506C369.237 7.18867 368.803 7.03 368.28 7.03C368 7.03 367.771 7.06733 367.594 7.142C367.417 7.21667 367.244 7.31933 367.076 7.45C366.964 7.534 366.875 7.59467 366.81 7.632C366.754 7.66 366.684 7.674 366.6 7.674H365.312C365.228 7.674 365.153 7.646 365.088 7.59C365.032 7.52467 365.004 7.45 365.004 7.366L365.494 2.578C365.503 2.466 365.541 2.37733 365.606 2.312C365.681 2.23733 365.774 2.2 365.886 2.2H371.15C371.243 2.2 371.323 2.23267 371.388 2.298C371.453 2.36333 371.486 2.44267 371.486 2.536V3.474C371.486 3.56733 371.453 3.64667 371.388 3.712C371.323 3.77733 371.243 3.81 371.15 3.81H367.104L366.88 6.092C367.337 5.77467 367.949 5.616 368.714 5.616C369.321 5.616 369.881 5.74667 370.394 6.008C370.917 6.26 371.332 6.62867 371.64 7.114C371.948 7.59 372.102 8.14533 372.102 8.78C372.102 9.46133 371.943 10.0587 371.626 10.572C371.309 11.076 370.861 11.468 370.282 11.748C369.713 12.0187 369.045 12.154 368.28 12.154ZM377.27 12.14C376.028 12.14 375.1 11.7947 374.484 11.104C373.877 10.4133 373.546 9.508 373.49 8.388C373.48 8.136 373.476 7.70667 373.476 7.1C373.476 6.484 373.48 6.04533 373.49 5.784C373.536 4.68267 373.872 3.78667 374.498 3.096C375.123 2.40533 376.047 2.06 377.27 2.06C378.502 2.06 379.43 2.40533 380.056 3.096C380.681 3.78667 381.012 4.68267 381.05 5.784C381.068 6.04533 381.078 6.484 381.078 7.1C381.078 7.70667 381.068 8.136 381.05 8.388C381.003 9.508 380.672 10.4133 380.056 11.104C379.449 11.7947 378.52 12.14 377.27 12.14ZM377.27 10.53C377.858 10.53 378.296 10.3387 378.586 9.956C378.875 9.564 379.029 9.018 379.048 8.318C379.066 7.77667 379.076 7.366 379.076 7.086C379.076 6.778 379.066 6.372 379.048 5.868C379.029 5.17733 378.875 4.636 378.586 4.244C378.296 3.852 377.858 3.656 377.27 3.656C376.691 3.656 376.252 3.852 375.954 4.244C375.664 4.636 375.51 5.17733 375.492 5.868C375.482 6.12 375.478 6.526 375.478 7.086C375.478 7.63667 375.482 8.04733 375.492 8.318C375.51 9.018 375.664 9.564 375.954 9.956C376.252 10.3387 376.691 10.53 377.27 10.53ZM386.471 12.14C385.23 12.14 384.301 11.7947 383.685 11.104C383.078 10.4133 382.747 9.508 382.691 8.388C382.682 8.136 382.677 7.70667 382.677 7.1C382.677 6.484 382.682 6.04533 382.691 5.784C382.738 4.68267 383.074 3.78667 383.699 3.096C384.324 2.40533 385.248 2.06 386.471 2.06C387.703 2.06 388.632 2.40533 389.257 3.096C389.882 3.78667 390.214 4.68267 390.251 5.784C390.27 6.04533 390.279 6.484 390.279 7.1C390.279 7.70667 390.27 8.136 390.251 8.388C390.204 9.508 389.873 10.4133 389.257 11.104C388.65 11.7947 387.722 12.14 386.471 12.14ZM386.471 10.53C387.059 10.53 387.498 10.3387 387.787 9.956C388.076 9.564 388.23 9.018 388.249 8.318C388.268 7.77667 388.277 7.366 388.277 7.086C388.277 6.778 388.268 6.372 388.249 5.868C388.23 5.17733 388.076 4.636 387.787 4.244C387.498 3.852 387.059 3.656 386.471 3.656C385.892 3.656 385.454 3.852 385.155 4.244C384.866 4.636 384.712 5.17733 384.693 5.868C384.684 6.12 384.679 6.526 384.679 7.086C384.679 7.63667 384.684 8.04733 384.693 8.318C384.712 9.018 384.866 9.564 385.155 9.956C385.454 10.3387 385.892 10.53 386.471 10.53ZM391.77 13.05C391.686 13.05 391.62 13.022 391.574 12.966C391.527 12.91 391.508 12.84 391.518 12.756L391.896 10.376C391.914 10.2453 391.961 10.138 392.036 10.054C392.11 9.97 392.213 9.928 392.344 9.928H393.632C393.697 9.928 393.753 9.956 393.8 10.012C393.856 10.0587 393.884 10.1193 393.884 10.194C393.884 10.2407 393.87 10.3013 393.842 10.376L392.946 12.7C392.899 12.812 392.838 12.896 392.764 12.952C392.698 13.0173 392.605 13.05 392.484 13.05H391.77ZM399.063 12.14C397.821 12.14 396.893 11.7947 396.277 11.104C395.67 10.4133 395.339 9.508 395.283 8.388C395.273 8.136 395.269 7.70667 395.269 7.1C395.269 6.484 395.273 6.04533 395.283 5.784C395.329 4.68267 395.665 3.78667 396.291 3.096C396.916 2.40533 397.84 2.06 399.063 2.06C400.295 2.06 401.223 2.40533 401.849 3.096C402.474 3.78667 402.805 4.68267 402.843 5.784C402.861 6.04533 402.871 6.484 402.871 7.1C402.871 7.70667 402.861 8.136 402.843 8.388C402.796 9.508 402.465 10.4133 401.849 11.104C401.242 11.7947 400.313 12.14 399.063 12.14ZM399.063 10.53C399.651 10.53 400.089 10.3387 400.379 9.956C400.668 9.564 400.822 9.018 400.841 8.318C400.859 7.77667 400.869 7.366 400.869 7.086C400.869 6.778 400.859 6.372 400.841 5.868C400.822 5.17733 400.668 4.636 400.379 4.244C400.089 3.852 399.651 3.656 399.063 3.656C398.484 3.656 398.045 3.852 397.747 4.244C397.457 4.636 397.303 5.17733 397.285 5.868C397.275 6.12 397.271 6.526 397.271 7.086C397.271 7.63667 397.275 8.04733 397.285 8.318C397.303 9.018 397.457 9.564 397.747 9.956C398.045 10.3387 398.484 10.53 399.063 10.53ZM408.264 12.14C407.023 12.14 406.094 11.7947 405.478 11.104C404.871 10.4133 404.54 9.508 404.484 8.388C404.475 8.136 404.47 7.70667 404.47 7.1C404.47 6.484 404.475 6.04533 404.484 5.784C404.531 4.68267 404.867 3.78667 405.492 3.096C406.117 2.40533 407.041 2.06 408.264 2.06C409.496 2.06 410.425 2.40533 411.05 3.096C411.675 3.78667 412.007 4.68267 412.044 5.784C412.063 6.04533 412.072 6.484 412.072 7.1C412.072 7.70667 412.063 8.136 412.044 8.388C411.997 9.508 411.666 10.4133 411.05 11.104C410.443 11.7947 409.515 12.14 408.264 12.14ZM408.264 10.53C408.852 10.53 409.291 10.3387 409.58 9.956C409.869 9.564 410.023 9.018 410.042 8.318C410.061 7.77667 410.07 7.366 410.07 7.086C410.07 6.778 410.061 6.372 410.042 5.868C410.023 5.17733 409.869 4.636 409.58 4.244C409.291 3.852 408.852 3.656 408.264 3.656C407.685 3.656 407.247 3.852 406.948 4.244C406.659 4.636 406.505 5.17733 406.486 5.868C406.477 6.12 406.472 6.526 406.472 7.086C406.472 7.63667 406.477 8.04733 406.486 8.318C406.505 9.018 406.659 9.564 406.948 9.956C407.247 10.3387 407.685 10.53 408.264 10.53ZM417.465 12.14C416.224 12.14 415.295 11.7947 414.679 11.104C414.072 10.4133 413.741 9.508 413.685 8.388C413.676 8.136 413.671 7.70667 413.671 7.1C413.671 6.484 413.676 6.04533 413.685 5.784C413.732 4.68267 414.068 3.78667 414.693 3.096C415.318 2.40533 416.242 2.06 417.465 2.06C418.697 2.06 419.626 2.40533 420.251 3.096C420.876 3.78667 421.208 4.68267 421.245 5.784C421.264 6.04533 421.273 6.484 421.273 7.1C421.273 7.70667 421.264 8.136 421.245 8.388C421.198 9.508 420.867 10.4133 420.251 11.104C419.644 11.7947 418.716 12.14 417.465 12.14ZM417.465 10.53C418.053 10.53 418.492 10.3387 418.781 9.956C419.07 9.564 419.224 9.018 419.243 8.318C419.262 7.77667 419.271 7.366 419.271 7.086C419.271 6.778 419.262 6.372 419.243 5.868C419.224 5.17733 419.07 4.636 418.781 4.244C418.492 3.852 418.053 3.656 417.465 3.656C416.886 3.656 416.448 3.852 416.149 4.244C415.86 4.636 415.706 5.17733 415.687 5.868C415.678 6.12 415.673 6.526 415.673 7.086C415.673 7.63667 415.678 8.04733 415.687 8.318C415.706 9.018 415.86 9.564 416.149 9.956C416.448 10.3387 416.886 10.53 417.465 10.53Z" fill="white"/>
<path d="M20.494 109.14C19.6633 109.14 18.9493 109.014 18.352 108.762C17.7547 108.51 17.302 108.179 16.994 107.768C16.686 107.357 16.5227 106.914 16.504 106.438C16.504 106.354 16.532 106.284 16.588 106.228C16.644 106.172 16.714 106.144 16.798 106.144H18.044C18.156 106.144 18.24 106.167 18.296 106.214C18.3613 106.251 18.422 106.317 18.478 106.41C18.5713 106.727 18.786 106.993 19.122 107.208C19.458 107.423 19.9153 107.53 20.494 107.53C21.1567 107.53 21.656 107.423 21.992 107.208C22.328 106.984 22.496 106.676 22.496 106.284C22.496 106.023 22.4073 105.808 22.23 105.64C22.062 105.472 21.8053 105.327 21.46 105.206C21.124 105.085 20.62 104.935 19.948 104.758C18.8467 104.497 18.0393 104.151 17.526 103.722C17.022 103.283 16.77 102.663 16.77 101.86C16.77 101.319 16.9147 100.838 17.204 100.418C17.5027 99.998 17.9273 99.6667 18.478 99.424C19.038 99.1813 19.6867 99.06 20.424 99.06C21.1893 99.06 21.852 99.1953 22.412 99.466C22.972 99.7367 23.3967 100.077 23.686 100.488C23.9847 100.889 24.1433 101.291 24.162 101.692C24.162 101.776 24.134 101.846 24.078 101.902C24.022 101.958 23.952 101.986 23.868 101.986H22.566C22.37 101.986 22.2347 101.897 22.16 101.72C22.104 101.421 21.9173 101.174 21.6 100.978C21.2827 100.773 20.8907 100.67 20.424 100.67C19.9013 100.67 19.4907 100.768 19.192 100.964C18.8933 101.16 18.744 101.445 18.744 101.818C18.744 102.079 18.8187 102.294 18.968 102.462C19.1173 102.63 19.3507 102.779 19.668 102.91C19.9947 103.041 20.4613 103.185 21.068 103.344C21.8893 103.531 22.5427 103.741 23.028 103.974C23.5227 104.207 23.8867 104.501 24.12 104.856C24.3533 105.211 24.47 105.663 24.47 106.214C24.47 106.811 24.302 107.334 23.966 107.782C23.6393 108.221 23.1727 108.557 22.566 108.79C21.9687 109.023 21.278 109.14 20.494 109.14ZM29.1264 109.14C28.0344 109.14 27.1898 108.86 26.5924 108.3C25.9951 107.731 25.6731 106.956 25.6264 105.976L25.6124 105.36L25.6264 104.744C25.6731 103.773 25.9998 103.003 26.6064 102.434C27.2131 101.865 28.0531 101.58 29.1264 101.58C30.1998 101.58 31.0398 101.865 31.6464 102.434C32.2531 103.003 32.5798 103.773 32.6264 104.744C32.6358 104.856 32.6404 105.061 32.6404 105.36C32.6404 105.659 32.6358 105.864 32.6264 105.976C32.5798 106.956 32.2578 107.731 31.6604 108.3C31.0631 108.86 30.2184 109.14 29.1264 109.14ZM29.1264 107.754C29.6211 107.754 30.0038 107.6 30.2744 107.292C30.5451 106.975 30.6944 106.513 30.7224 105.906C30.7318 105.813 30.7364 105.631 30.7364 105.36C30.7364 105.089 30.7318 104.907 30.7224 104.814C30.6944 104.207 30.5451 103.75 30.2744 103.442C30.0038 103.125 29.6211 102.966 29.1264 102.966C28.6318 102.966 28.2491 103.125 27.9784 103.442C27.7078 103.75 27.5584 104.207 27.5304 104.814L27.5164 105.36L27.5304 105.906C27.5584 106.513 27.7078 106.975 27.9784 107.292C28.2491 107.6 28.6318 107.754 29.1264 107.754ZM35.2295 109C35.1362 109 35.0569 108.967 34.9915 108.902C34.9262 108.837 34.8935 108.757 34.8935 108.664V103.204H33.7595C33.6662 103.204 33.5869 103.171 33.5215 103.106C33.4562 103.031 33.4235 102.947 33.4235 102.854V102.056C33.4235 101.963 33.4562 101.883 33.5215 101.818C33.5869 101.753 33.6662 101.72 33.7595 101.72H34.8935V101.146C34.8935 99.4753 35.8082 98.64 37.6375 98.64H38.5895C38.6922 98.64 38.7715 98.6727 38.8275 98.738C38.8929 98.794 38.9255 98.8733 38.9255 98.976V99.774C38.9255 99.8767 38.8929 99.9607 38.8275 100.026C38.7622 100.091 38.6829 100.124 38.5895 100.124H37.6935C37.3295 100.124 37.0729 100.213 36.9235 100.39C36.7835 100.567 36.7135 100.843 36.7135 101.216V101.72H38.4495C38.5522 101.72 38.6315 101.753 38.6875 101.818C38.7529 101.874 38.7855 101.953 38.7855 102.056V102.854C38.7855 102.957 38.7529 103.041 38.6875 103.106C38.6222 103.171 38.5429 103.204 38.4495 103.204H36.7135V108.664C36.7135 108.757 36.6809 108.837 36.6155 108.902C36.5502 108.967 36.4709 109 36.3775 109H35.2295ZM43.1964 109C42.3471 109 41.7078 108.781 41.2784 108.342C40.8584 107.894 40.6484 107.241 40.6484 106.382V103.204H39.5424C39.4491 103.204 39.3698 103.171 39.3044 103.106C39.2391 103.031 39.2064 102.947 39.2064 102.854V102.056C39.2064 101.963 39.2391 101.883 39.3044 101.818C39.3698 101.753 39.4491 101.72 39.5424 101.72H40.6484V99.396C40.6484 99.2933 40.6811 99.214 40.7464 99.158C40.8118 99.0927 40.8911 99.06 40.9844 99.06H42.1184C42.2211 99.06 42.3004 99.0927 42.3564 99.158C42.4218 99.214 42.4544 99.2933 42.4544 99.396V101.72H44.2044C44.3071 101.72 44.3864 101.753 44.4424 101.818C44.5078 101.874 44.5404 101.953 44.5404 102.056V102.854C44.5404 102.957 44.5078 103.041 44.4424 103.106C44.3771 103.171 44.2978 103.204 44.2044 103.204H42.4544V106.242C42.4544 106.643 42.5244 106.947 42.6644 107.152C42.8044 107.357 43.0378 107.46 43.3644 107.46H44.3304C44.4238 107.46 44.5031 107.493 44.5684 107.558C44.6338 107.623 44.6664 107.703 44.6664 107.796V108.664C44.6664 108.757 44.6338 108.837 44.5684 108.902C44.5124 108.967 44.4331 109 44.3304 109H43.1964ZM49.0584 109.14C48.0317 109.14 47.2104 108.855 46.5944 108.286C45.9877 107.717 45.6657 106.928 45.6284 105.92L45.6144 105.36L45.6284 104.8C45.6657 103.792 45.9877 103.003 46.5944 102.434C47.2104 101.865 48.0317 101.58 49.0584 101.58C49.7864 101.58 50.4024 101.711 50.9064 101.972C51.4197 102.233 51.7977 102.555 52.0404 102.938C52.2924 103.311 52.4277 103.666 52.4464 104.002C52.4557 104.095 52.423 104.175 52.3484 104.24C52.283 104.305 52.2037 104.338 52.1104 104.338H50.8784C50.785 104.338 50.7104 104.319 50.6544 104.282C50.6077 104.235 50.561 104.161 50.5144 104.058C50.3744 103.694 50.1877 103.433 49.9544 103.274C49.7304 103.115 49.441 103.036 49.0864 103.036C48.6104 103.036 48.237 103.19 47.9664 103.498C47.6957 103.797 47.551 104.254 47.5324 104.87L47.5184 105.388L47.5324 105.85C47.5697 107.073 48.0877 107.684 49.0864 107.684C49.4504 107.684 49.7444 107.605 49.9684 107.446C50.1924 107.287 50.3744 107.026 50.5144 106.662C50.561 106.559 50.6077 106.489 50.6544 106.452C50.7104 106.405 50.785 106.382 50.8784 106.382H52.1104C52.2037 106.382 52.283 106.415 52.3484 106.48C52.423 106.545 52.4557 106.625 52.4464 106.718C52.4277 107.045 52.297 107.395 52.0544 107.768C51.8117 108.141 51.4384 108.463 50.9344 108.734C50.4304 109.005 49.805 109.14 49.0584 109.14ZM56.0204 109.14C55.5444 109.14 55.1058 109.047 54.7044 108.86C54.3124 108.664 53.9998 108.403 53.7664 108.076C53.5424 107.749 53.4304 107.39 53.4304 106.998C53.4304 106.363 53.6871 105.85 54.2004 105.458C54.7138 105.066 55.4184 104.8 56.3144 104.66L58.2324 104.38V104.086C58.2324 103.675 58.1298 103.367 57.9244 103.162C57.7191 102.957 57.3878 102.854 56.9304 102.854C56.6224 102.854 56.3704 102.915 56.1744 103.036C55.9878 103.148 55.8384 103.26 55.7264 103.372C55.6144 103.493 55.5398 103.573 55.5024 103.61C55.4651 103.722 55.3951 103.778 55.2924 103.778H54.2144C54.1304 103.778 54.0558 103.75 53.9904 103.694C53.9344 103.638 53.9064 103.563 53.9064 103.47C53.9158 103.237 54.0278 102.971 54.2424 102.672C54.4664 102.373 54.8071 102.117 55.2644 101.902C55.7218 101.687 56.2818 101.58 56.9444 101.58C58.0458 101.58 58.8484 101.827 59.3524 102.322C59.8564 102.817 60.1084 103.465 60.1084 104.268V108.664C60.1084 108.757 60.0758 108.837 60.0104 108.902C59.9544 108.967 59.8751 109 59.7724 109H58.6384C58.5451 109 58.4658 108.967 58.4004 108.902C58.3351 108.837 58.3024 108.757 58.3024 108.664V108.118C58.0971 108.417 57.8031 108.664 57.4204 108.86C57.0471 109.047 56.5804 109.14 56.0204 109.14ZM56.4964 107.81C57.0098 107.81 57.4298 107.642 57.7564 107.306C58.0831 106.97 58.2464 106.48 58.2464 105.836V105.542L56.8464 105.766C56.3051 105.85 55.8944 105.985 55.6144 106.172C55.3438 106.359 55.2084 106.587 55.2084 106.858C55.2084 107.157 55.3344 107.39 55.5864 107.558C55.8384 107.726 56.1418 107.81 56.4964 107.81ZM62.2545 111.66C62.1611 111.66 62.0818 111.627 62.0165 111.562C61.9511 111.506 61.9185 111.427 61.9185 111.324V102.056C61.9185 101.953 61.9511 101.874 62.0165 101.818C62.0818 101.753 62.1611 101.72 62.2545 101.72H63.3605C63.4631 101.72 63.5425 101.753 63.5985 101.818C63.6638 101.874 63.6965 101.953 63.6965 102.056V102.616C64.2191 101.925 64.9658 101.58 65.9365 101.58C66.8791 101.58 67.6025 101.879 68.1065 102.476C68.6105 103.064 68.8811 103.862 68.9185 104.87C68.9278 104.982 68.9325 105.145 68.9325 105.36C68.9325 105.584 68.9278 105.752 68.9185 105.864C68.8811 106.844 68.6105 107.637 68.1065 108.244C67.6025 108.841 66.8791 109.14 65.9365 109.14C64.9938 109.14 64.2751 108.809 63.7805 108.146V111.324C63.7805 111.427 63.7478 111.506 63.6825 111.562C63.6265 111.627 63.5471 111.66 63.4445 111.66H62.2545ZM65.4185 107.642C66.4265 107.642 66.9631 107.021 67.0285 105.78C67.0378 105.687 67.0425 105.547 67.0425 105.36C67.0425 105.173 67.0378 105.033 67.0285 104.94C66.9631 103.699 66.4265 103.078 65.4185 103.078C64.8771 103.078 64.4758 103.251 64.2145 103.596C63.9531 103.941 63.8085 104.366 63.7805 104.87L63.7665 105.402L63.7805 105.948C63.7991 106.415 63.9438 106.816 64.2145 107.152C64.4945 107.479 64.8958 107.642 65.4185 107.642Z" fill="white"/>
<path d="M358.428 109C358.335 109 358.255 108.967 358.19 108.902C358.125 108.837 358.092 108.757 358.092 108.664V99.55C358.092 99.4473 358.12 99.3633 358.176 99.298C358.241 99.2327 358.325 99.2 358.428 99.2H359.702C359.805 99.2 359.884 99.2327 359.94 99.298C360.005 99.3633 360.038 99.4473 360.038 99.55V103.162H364.168V99.55C364.168 99.4473 364.196 99.3633 364.252 99.298C364.317 99.2327 364.401 99.2 364.504 99.2H365.764C365.867 99.2 365.951 99.2327 366.016 99.298C366.081 99.3633 366.114 99.4473 366.114 99.55V108.664C366.114 108.767 366.081 108.851 366.016 108.916C365.951 108.972 365.867 109 365.764 109H364.504C364.411 109 364.331 108.967 364.266 108.902C364.201 108.837 364.168 108.757 364.168 108.664V104.912H360.038V108.664C360.038 108.757 360.005 108.837 359.94 108.902C359.884 108.967 359.805 109 359.702 109H358.428ZM370.237 109.14C369.761 109.14 369.323 109.047 368.921 108.86C368.529 108.664 368.217 108.403 367.983 108.076C367.759 107.749 367.647 107.39 367.647 106.998C367.647 106.363 367.904 105.85 368.417 105.458C368.931 105.066 369.635 104.8 370.531 104.66L372.449 104.38V104.086C372.449 103.675 372.347 103.367 372.141 103.162C371.936 102.957 371.605 102.854 371.147 102.854C370.839 102.854 370.587 102.915 370.391 103.036C370.205 103.148 370.055 103.26 369.943 103.372C369.831 103.493 369.757 103.573 369.719 103.61C369.682 103.722 369.612 103.778 369.509 103.778H368.431C368.347 103.778 368.273 103.75 368.207 103.694C368.151 103.638 368.123 103.563 368.123 103.47C368.133 103.237 368.245 102.971 368.459 102.672C368.683 102.373 369.024 102.117 369.481 101.902C369.939 101.687 370.499 101.58 371.161 101.58C372.263 101.58 373.065 101.827 373.569 102.322C374.073 102.817 374.325 103.465 374.325 104.268V108.664C374.325 108.757 374.293 108.837 374.227 108.902C374.171 108.967 374.092 109 373.989 109H372.855C372.762 109 372.683 108.967 372.617 108.902C372.552 108.837 372.519 108.757 372.519 108.664V108.118C372.314 108.417 372.02 108.664 371.637 108.86C371.264 109.047 370.797 109.14 370.237 109.14ZM370.713 107.81C371.227 107.81 371.647 107.642 371.973 107.306C372.3 106.97 372.463 106.48 372.463 105.836V105.542L371.063 105.766C370.522 105.85 370.111 105.985 369.831 106.172C369.561 106.359 369.425 106.587 369.425 106.858C369.425 107.157 369.551 107.39 369.803 107.558C370.055 107.726 370.359 107.81 370.713 107.81ZM376.457 109C376.364 109 376.285 108.967 376.219 108.902C376.154 108.837 376.121 108.757 376.121 108.664V102.07C376.121 101.977 376.154 101.897 376.219 101.832C376.285 101.757 376.364 101.72 376.457 101.72H377.591C377.694 101.72 377.778 101.753 377.843 101.818C377.909 101.883 377.941 101.967 377.941 102.07V102.644C378.165 102.345 378.445 102.117 378.781 101.958C379.127 101.799 379.519 101.72 379.957 101.72H380.531C380.634 101.72 380.713 101.753 380.769 101.818C380.835 101.874 380.867 101.953 380.867 102.056V103.064C380.867 103.157 380.835 103.237 380.769 103.302C380.713 103.367 380.634 103.4 380.531 103.4H379.439C379.001 103.4 378.655 103.526 378.403 103.778C378.151 104.03 378.025 104.375 378.025 104.814V108.664C378.025 108.757 377.993 108.837 377.927 108.902C377.862 108.967 377.778 109 377.675 109H376.457ZM384.552 109.14C383.609 109.14 382.886 108.837 382.382 108.23C381.878 107.623 381.607 106.816 381.57 105.808L381.556 105.346L381.57 104.898C381.598 103.918 381.864 103.12 382.368 102.504C382.881 101.888 383.609 101.58 384.552 101.58C385.457 101.58 386.176 101.888 386.708 102.504V99.396C386.708 99.2933 386.74 99.214 386.806 99.158C386.871 99.0927 386.95 99.06 387.044 99.06H388.234C388.336 99.06 388.416 99.0927 388.472 99.158C388.537 99.214 388.57 99.2933 388.57 99.396V108.664C388.57 108.757 388.537 108.837 388.472 108.902C388.416 108.967 388.336 109 388.234 109H387.128C387.034 109 386.955 108.967 386.89 108.902C386.824 108.837 386.792 108.757 386.792 108.664V108.146C386.26 108.809 385.513 109.14 384.552 109.14ZM385.07 107.642C385.611 107.642 386.012 107.469 386.274 107.124C386.535 106.779 386.68 106.354 386.708 105.85C386.717 105.738 386.722 105.556 386.722 105.304C386.722 105.061 386.717 104.884 386.708 104.772C386.689 104.305 386.54 103.909 386.26 103.582C385.989 103.246 385.592 103.078 385.07 103.078C384.062 103.078 383.525 103.699 383.46 104.94L383.446 105.36L383.46 105.78C383.525 107.021 384.062 107.642 385.07 107.642ZM393.586 109.14C392.559 109.14 391.738 108.855 391.122 108.286C390.515 107.717 390.193 106.928 390.156 105.92L390.142 105.36L390.156 104.8C390.193 103.792 390.515 103.003 391.122 102.434C391.738 101.865 392.559 101.58 393.586 101.58C394.314 101.58 394.93 101.711 395.434 101.972C395.947 102.233 396.325 102.555 396.568 102.938C396.82 103.311 396.955 103.666 396.974 104.002C396.983 104.095 396.95 104.175 396.876 104.24C396.81 104.305 396.731 104.338 396.638 104.338H395.406C395.312 104.338 395.238 104.319 395.182 104.282C395.135 104.235 395.088 104.161 395.042 104.058C394.902 103.694 394.715 103.433 394.482 103.274C394.258 103.115 393.968 103.036 393.614 103.036C393.138 103.036 392.764 103.19 392.494 103.498C392.223 103.797 392.078 104.254 392.06 104.87L392.046 105.388L392.06 105.85C392.097 107.073 392.615 107.684 393.614 107.684C393.978 107.684 394.272 107.605 394.496 107.446C394.72 107.287 394.902 107.026 395.042 106.662C395.088 106.559 395.135 106.489 395.182 106.452C395.238 106.405 395.312 106.382 395.406 106.382H396.638C396.731 106.382 396.81 106.415 396.876 106.48C396.95 106.545 396.983 106.625 396.974 106.718C396.955 107.045 396.824 107.395 396.582 107.768C396.339 108.141 395.966 108.463 395.462 108.734C394.958 109.005 394.332 109.14 393.586 109.14ZM400.548 109.14C400.072 109.14 399.633 109.047 399.232 108.86C398.84 108.664 398.527 108.403 398.294 108.076C398.07 107.749 397.958 107.39 397.958 106.998C397.958 106.363 398.214 105.85 398.728 105.458C399.241 105.066 399.946 104.8 400.842 104.66L402.76 104.38V104.086C402.76 103.675 402.657 103.367 402.452 103.162C402.246 102.957 401.915 102.854 401.458 102.854C401.15 102.854 400.898 102.915 400.702 103.036C400.515 103.148 400.366 103.26 400.254 103.372C400.142 103.493 400.067 103.573 400.03 103.61C399.992 103.722 399.922 103.778 399.82 103.778H398.742C398.658 103.778 398.583 103.75 398.518 103.694C398.462 103.638 398.434 103.563 398.434 103.47C398.443 103.237 398.555 102.971 398.77 102.672C398.994 102.373 399.334 102.117 399.792 101.902C400.249 101.687 400.809 101.58 401.472 101.58C402.573 101.58 403.376 101.827 403.88 102.322C404.384 102.817 404.636 103.465 404.636 104.268V108.664C404.636 108.757 404.603 108.837 404.538 108.902C404.482 108.967 404.402 109 404.3 109H403.166C403.072 109 402.993 108.967 402.928 108.902C402.862 108.837 402.83 108.757 402.83 108.664V108.118C402.624 108.417 402.33 108.664 401.948 108.86C401.574 109.047 401.108 109.14 400.548 109.14ZM401.024 107.81C401.537 107.81 401.957 107.642 402.284 107.306C402.61 106.97 402.774 106.48 402.774 105.836V105.542L401.374 105.766C400.832 105.85 400.422 105.985 400.142 106.172C399.871 106.359 399.736 106.587 399.736 106.858C399.736 107.157 399.862 107.39 400.114 107.558C400.366 107.726 400.669 107.81 401.024 107.81ZM406.782 111.66C406.688 111.66 406.609 111.627 406.544 111.562C406.478 111.506 406.446 111.427 406.446 111.324V102.056C406.446 101.953 406.478 101.874 406.544 101.818C406.609 101.753 406.688 101.72 406.782 101.72H407.888C407.99 101.72 408.07 101.753 408.126 101.818C408.191 101.874 408.224 101.953 408.224 102.056V102.616C408.746 101.925 409.493 101.58 410.464 101.58C411.406 101.58 412.13 101.879 412.634 102.476C413.138 103.064 413.408 103.862 413.446 104.87C413.455 104.982 413.46 105.145 413.46 105.36C413.46 105.584 413.455 105.752 413.446 105.864C413.408 106.844 413.138 107.637 412.634 108.244C412.13 108.841 411.406 109.14 410.464 109.14C409.521 109.14 408.802 108.809 408.308 108.146V111.324C408.308 111.427 408.275 111.506 408.21 111.562C408.154 111.627 408.074 111.66 407.972 111.66H406.782ZM409.946 107.642C410.954 107.642 411.49 107.021 411.556 105.78C411.565 105.687 411.57 105.547 411.57 105.36C411.57 105.173 411.565 105.033 411.556 104.94C411.49 103.699 410.954 103.078 409.946 103.078C409.404 103.078 409.003 103.251 408.742 103.596C408.48 103.941 408.336 104.366 408.308 104.87L408.294 105.402L408.308 105.948C408.326 106.415 408.471 106.816 408.742 107.152C409.022 107.479 409.423 107.642 409.946 107.642Z" fill="white"/>
</svg>
